<svg width="40" height="40" viewBox="0 0 40 40" fill="none" xmlns="http://www.w3.org/2000/svg">
<path d="M36.25 23.125H15C14.8342 23.125 14.6752 23.1908 14.558 23.3081C14.4408 23.4253 14.375 23.5842 14.375 23.75C14.375 23.9158 14.4408 24.0747 14.558 24.1919C14.6752 24.3092 14.8342 24.375 15 24.375H38.0675C38.2437 24.375 38.4062 24.4456 38.5256 24.5737C38.645 24.7019 38.7037 24.87 38.6912 25.0456C38.5162 27.4631 37.7543 33.4706 34.4656 37.0381C33.4625 38.1263 31.9881 38.75 30.4212 38.75H9.57872C8.01184 38.75 6.53747 38.1263 5.53434 37.0381C2.24559 33.4713 1.48372 27.4638 1.30872 25.0456C1.29559 24.87 1.35497 24.7019 1.47434 24.5737C1.59372 24.4456 1.75622 24.375 1.93247 24.375H5.62497V31.25C5.62497 31.9394 6.18559 32.5 6.87497 32.5H12.5C13.1893 32.5 13.75 31.9394 13.75 31.25V23.125C13.75 22.4356 13.1893 21.875 12.5 21.875H6.87497C6.18559 21.875 5.62497 22.4356 5.62497 23.125H1.93247C1.41309 23.125 0.912469 23.3431 0.559344 23.7225C0.206219 24.1019 0.0249685 24.6175 0.0624685 25.1362C0.246844 27.6844 1.05934 34.0288 4.61559 37.885C5.85434 39.2294 7.66372 40 9.57872 40H30.4212C32.3362 40 34.1456 39.2294 35.385 37.885C38.9412 34.0281 39.7537 27.6844 39.9381 25.1362C39.9756 24.6175 39.7943 24.1025 39.4412 23.7225C39.4212 23.7013 39.3962 23.6856 39.3756 23.665V16.875C39.3756 15.8413 38.5343 15 37.5006 15H31.25C31.0842 15 30.9252 15.0658 30.808 15.1831C30.6908 15.3003 30.625 15.4592 30.625 15.625V17.5C30.625 17.6658 30.6908 17.8247 30.808 17.9419C30.9252 18.0592 31.0842 18.125 31.25 18.125V19.375C31.25 19.5408 31.3158 19.6997 31.433 19.8169C31.5502 19.9342 31.7092 20 31.875 20H34.375C34.5407 20 34.6997 19.9342 34.8169 19.8169C34.9341 19.6997 35 19.5408 35 19.375V18.125H36.25V23.125ZM6.87497 23.125H12.5L12.5006 31.25H6.87497V23.125ZM33.75 18.75H32.5V18.125H33.75V18.75ZM34.375 16.875H31.875V16.25H37.5C37.8443 16.25 38.125 16.53 38.125 16.875V23.125H37.5V18.125C37.5 17.4356 36.9393 16.875 36.25 16.875H34.375ZM39.375 1.25H36.875C36.875 0.560625 36.3143 0 35.625 0H26.25C25.5606 0 25 0.560625 25 1.25H22.5C22.3342 1.25 22.1752 1.31585 22.058 1.43306C21.9408 1.55027 21.875 1.70924 21.875 1.875V4.375C21.875 4.54076 21.9408 4.69973 22.058 4.81694C22.1752 4.93415 22.3342 5 22.5 5H23.75C23.9157 5 24.0747 4.93415 24.1919 4.81694C24.3091 4.69973 24.375 4.54076 24.375 4.375C24.375 4.20924 24.3091 4.05027 24.1919 3.93306C24.0747 3.81585 23.9157 3.75 23.75 3.75H23.125V2.5H25V12.5C25 13.1894 25.5606 13.75 26.25 13.75H35.625C36.3143 13.75 36.875 13.1894 36.875 12.5V5H39.375C39.5407 5 39.6997 4.93415 39.8169 4.81694C39.9341 4.69973 40 4.54076 40 4.375V1.875C40 1.70924 39.9341 1.55027 39.8169 1.43306C39.6997 1.31585 39.5407 1.25 39.375 1.25ZM26.25 12.5V1.25H35.625V4.37625L35.6256 12.5H26.25ZM38.75 3.75H36.875V2.5H38.75V3.75Z" fill="#9E5F14"/>
<path d="M0.625 18.125H21.875C22.0408 18.125 22.1997 18.0592 22.3169 17.9419C22.4342 17.8247 22.5 17.6658 22.5 17.5V15C22.5 14.8342 22.4342 14.6753 22.3169 14.5581C22.1997 14.4408 22.0408 14.375 21.875 14.375H19.4794L19.975 12.675C20.0023 12.5818 20.0075 12.4836 19.9902 12.3881C19.9729 12.2926 19.9336 12.2024 19.8753 12.1247C19.8171 12.0471 19.7415 11.9841 19.6547 11.9407C19.5678 11.8974 19.4721 11.8749 19.375 11.875H19.3431C19.3638 11.7737 19.375 11.6694 19.375 11.5625V10.9375C19.375 10.0756 18.6737 9.375 17.8125 9.375H16.5625C16.1483 9.3755 15.7511 9.54028 15.4582 9.83319C15.1653 10.1261 15.0005 10.5233 15 10.9375V11.5625C15 11.6694 15.0113 11.7737 15.0319 11.875H15C14.903 11.875 14.8073 11.8976 14.7205 11.941C14.6337 11.9844 14.5582 12.0474 14.5 12.125C14.4418 12.2026 14.4024 12.2927 14.3851 12.3882C14.3677 12.4837 14.3728 12.5819 14.4 12.675L14.8956 14.375H13.75V11.25C13.75 10.5606 13.1894 10 12.5 10H9.375C8.68563 10 8.125 10.5606 8.125 11.25V14.375H7.41C7.41 14.3231 7.41375 14.2719 7.40687 14.22L6.93812 10.47C6.90022 10.1678 6.75334 9.8898 6.52504 9.68819C6.29673 9.48658 6.0027 9.37522 5.69812 9.375H5.625V7.5C5.625 7.33424 5.55915 7.17527 5.44194 7.05806C5.32473 6.94085 5.16576 6.875 5 6.875H3.75C3.58424 6.875 3.42527 6.94085 3.30806 7.05806C3.19085 7.17527 3.125 7.33424 3.125 7.5C3.125 7.66576 3.19085 7.82473 3.30806 7.94194C3.42527 8.05915 3.58424 8.125 3.75 8.125H4.375V9.375H4.30188C3.67312 9.375 3.13938 9.84563 3.06188 10.47L2.59313 14.22C2.58625 14.2719 2.59 14.3231 2.59 14.375H0.625C0.45924 14.375 0.300269 14.4408 0.183058 14.5581C0.065848 14.6753 0 14.8342 0 15L0 17.5C0 17.6658 0.065848 17.8247 0.183058 17.9419C0.300269 18.0592 0.45924 18.125 0.625 18.125ZM16.25 11.5625V10.9375C16.25 10.7681 16.3931 10.625 16.5625 10.625H17.8125C17.9819 10.625 18.125 10.7681 18.125 10.9375V11.5625C18.125 11.7319 17.9819 11.875 17.8125 11.875H16.5625C16.48 11.8739 16.4011 11.8406 16.3428 11.7822C16.2844 11.7239 16.2511 11.645 16.25 11.5625ZM15.8331 13.125H18.5419L18.1775 14.375H16.1981L15.8331 13.125ZM12.5 11.25V11.875H9.375V11.25H12.5ZM9.375 13.125H12.5006L12.5013 14.375H9.375V13.125ZM4.30188 10.625H5.69812L6.16687 14.375H3.83312L4.30188 10.625ZM1.25 15.625H21.25V16.875H1.25V15.625Z" fill="#9E5F14"/>
</svg>
