<svg width="45" height="46" viewBox="0 0 45 46" fill="none" xmlns="http://www.w3.org/2000/svg">
<path d="M43.4435 22.4884H44.4657V23.5106H43.4435V22.4884ZM44.1566 26.6373L43.1446 26.4921L43.2897 25.4801L44.3017 25.6253L44.1566 26.6373ZM43.4188 29.6512L42.4375 29.3629L42.7258 28.3817L43.7071 28.67L43.4188 29.6512ZM41.3375 32.1693L42.2675 32.5941L42.6919 31.6642L41.7621 31.2393L41.3375 32.1693ZM39.841 34.7587L40.7003 35.3113L41.2533 34.4512L40.3932 33.8986L39.841 34.7587ZM4.29759 35.3178L3.74561 34.4571L4.6064 33.9051L5.15839 34.7657L4.29759 35.3178ZM2.72137 32.5754L2.29603 31.6449L3.22613 31.2197L3.65136 32.1502L2.72137 32.5754ZM1.27025 28.7149L2.25146 28.4266L2.53972 29.4079L1.55841 29.6962L1.27025 28.7149ZM0.675232 25.6255L1.68731 25.4793L1.83348 26.4913L0.821509 26.6375L0.675232 25.6255ZM0.511169 22.4884H1.53337V23.5106H0.511169V22.4884ZM1.6824 20.5165L0.670428 20.3704L0.816602 19.358L1.82858 19.5042L1.6824 20.5165ZM1.54165 16.3286L2.52296 16.6169L2.2347 17.5982L1.25339 17.3099L1.54165 16.3286ZM8.48513 6.0595L9.15467 6.83228L8.38189 7.50182L7.71235 6.72904L8.48513 6.0595ZM11.5892 5.09465L11.0366 4.23458L10.1766 4.78758L10.7296 5.64684L11.5892 5.09465ZM13.8183 2.7992L14.2426 3.7294L13.3124 4.15362L12.8881 3.22342L13.8183 2.7992ZM16.7789 1.77476L17.0662 2.75586L16.0847 3.0431L15.7974 2.062L16.7789 1.77476ZM19.8616 1.17596L20.0067 2.18793L18.9948 2.33308L18.8496 1.32111L19.8616 1.17596ZM21.9773 1.02222H22.9995V2.04441H21.9773V1.02222ZM39.841 11.2402L40.3932 12.1003L41.2533 11.5477L40.7003 10.6876L39.841 11.2402ZM41.7621 14.7596L42.6919 14.3347L42.2675 13.4048L41.3375 13.8296L41.7621 14.7596ZM43.6902 17.3032L42.709 17.5914L42.4208 16.6101L43.4021 16.3219L43.6902 17.3032ZM44.2951 20.3932L43.2831 20.5393L43.1369 19.5274L44.1489 19.3812L44.2951 20.3932Z" fill="#9E5F14"/>
<path d="M3.7906 14.8219C5.52271 14.8219 7.02207 13.8101 7.63662 12.2664H15.8745C16.4886 13.8101 17.9884 14.8219 19.7205 14.8219C21.6144 14.8219 22.8789 14.0232 23.4771 12.448C23.5065 12.3706 23.5167 12.2873 23.5069 12.2051C23.497 12.1229 23.4673 12.0443 23.4204 11.9761C23.3733 11.908 23.3104 11.8523 23.2371 11.8138C23.1638 11.7754 23.0823 11.7553 22.9995 11.7553H19.4218V9.71088H22.9995C23.1816 9.71088 23.3501 9.61428 23.4411 9.45656C23.4862 9.37925 23.5102 9.29143 23.5106 9.20194C23.511 9.11244 23.4878 9.02441 23.4435 8.94668C22.7899 7.8007 21.3852 6.64429 19.7205 6.64429C17.9884 6.64429 16.4886 7.65606 15.8745 9.19978H7.63662C7.02207 7.65606 5.52271 6.64429 3.7906 6.64429C2.12636 6.64429 0.721247 7.8007 0.0671428 8.94658C0.0227984 9.02423 -0.000354709 9.11217 4.10797e-06 9.20159C0.000362925 9.291 0.0242211 9.37876 0.0691872 9.45605C0.113996 9.53359 0.178437 9.59797 0.256028 9.64271C0.333619 9.68744 0.421622 9.71096 0.511186 9.71088H3.57778V11.7553H0.511186C0.428401 11.7553 0.34685 11.7753 0.273554 11.8138C0.200257 11.8523 0.13741 11.908 0.0904228 11.9762C0.0434352 12.0444 0.0137144 12.1229 0.00381848 12.2051C-0.00607743 12.2873 0.00414805 12.3707 0.0336148 12.448C0.632929 14.0233 1.89718 14.8219 3.7906 14.8219ZM4.08888 12.7775C4.22443 12.7775 4.35443 12.7236 4.45028 12.6278C4.54613 12.5319 4.59998 12.4019 4.59998 12.2664V9.19978C4.59998 9.06423 4.54613 8.93423 4.45028 8.83838C4.35443 8.74253 4.22443 8.68868 4.08888 8.68868H1.54739C2.11716 8.12085 2.91693 7.66648 3.7906 7.66648C5.19817 7.66648 6.40037 8.54578 6.78175 9.85378C6.81276 9.95996 6.87734 10.0532 6.96582 10.1196C7.0543 10.186 7.1619 10.2219 7.27251 10.222H16.2387C16.3493 10.2219 16.4568 10.186 16.5452 10.1196C16.6337 10.0532 16.6982 9.95993 16.7291 9.85378C17.1108 8.54578 18.3126 7.66648 19.7205 7.66648C20.5946 7.66648 21.3944 8.12085 21.9637 8.68868H18.9107C18.7752 8.68868 18.6452 8.74253 18.5493 8.83838C18.4535 8.93423 18.3996 9.06423 18.3996 9.19978V12.2664C18.3996 12.4019 18.4535 12.5319 18.5493 12.6278C18.6452 12.7236 18.7752 12.7775 18.9107 12.7775H22.1546C21.6495 13.4714 20.8584 13.7997 19.7204 13.7997C18.3126 13.7997 17.1107 12.9204 16.7289 11.6124C16.698 11.5062 16.6334 11.413 16.545 11.3466C16.4566 11.2802 16.3491 11.2443 16.2385 11.2442H7.27231C7.1617 11.2442 7.05409 11.2802 6.96561 11.3465C6.87714 11.4129 6.81256 11.5062 6.78155 11.6124C6.40037 12.9204 5.19817 13.7997 3.7906 13.7997C2.65259 13.7997 1.86161 13.4714 1.35644 12.7775H4.08888Z" fill="#9E5F14"/>
<path d="M40.8461 31.3798C40.8857 31.2882 40.8976 31.1869 40.8804 31.0886C40.8631 30.9903 40.8175 30.8991 40.7491 30.8264L37.8214 27.7159V6.64428H41.3991C41.6819 6.64428 41.9102 6.41552 41.9102 6.13319V0.511099C41.9102 0.228768 41.6819 1.96868e-07 41.3991 1.96868e-07H31.6882C31.609 -6.95177e-05 31.5308 0.0183771 31.4599 0.05387L25.3267 3.12046C25.2417 3.16289 25.1703 3.22814 25.1204 3.3089C25.0704 3.38966 25.044 3.48274 25.044 3.57769V6.13319C25.044 6.41552 25.2723 6.64428 25.5551 6.64428H33.7326V23.3716L32.5715 22.1378C32.5236 22.0872 32.4659 22.0469 32.402 22.0193C32.338 21.9917 32.269 21.9774 32.1993 21.9774V16.8664C32.1993 16.584 31.971 16.3553 31.6882 16.3553H13.2887C13.1531 16.3553 13.0231 16.4091 12.9273 16.505C12.8314 16.6008 12.7776 16.7308 12.7776 16.8664V21.9774C12.6366 21.9774 12.5021 22.0356 12.4054 22.1378L4.22782 30.8265C4.15942 30.8992 4.11379 30.9904 4.09655 31.0887C4.07931 31.1871 4.09122 31.2883 4.13082 31.3799C4.17045 31.4715 4.23599 31.5494 4.31935 31.6042C4.40271 31.659 4.50026 31.6882 4.6 31.6882H7.6666V45.4879C7.6666 45.7706 7.89536 45.999 8.1777 45.999H36.7992C37.082 45.999 37.3103 45.7706 37.3103 45.4879V31.6881H40.3769C40.4767 31.6881 40.5742 31.6589 40.6576 31.6041C40.741 31.5493 40.8065 31.4714 40.8461 31.3798ZM26.0662 5.62209V3.89355L31.8089 1.0222H38.3325V2.55549H39.3547V1.0222H40.888V5.62209H34.2437H26.0662ZM34.7548 8.68868V6.64428H36.7992V8.68868H34.7548ZM36.7992 9.71088V26.6299L34.7548 24.4577V9.71088H36.7992ZM13.7998 17.3774H31.1771V21.9772H30.1549V18.9107C30.1549 18.6283 29.9266 18.3996 29.6438 18.3996H15.3331C15.1975 18.3996 15.0675 18.4534 14.9717 18.5493C14.8758 18.6451 14.822 18.7751 14.822 18.9107V21.9772H13.7998V17.3774ZM29.1327 19.4218V21.9772H15.8442V19.4218H29.1327ZM19.933 44.9767H14.822V36.288H19.933V44.9767ZM36.2881 44.9767H20.9552V35.7769C20.9552 35.4942 20.7264 35.2658 20.4441 35.2658H14.3109C14.0286 35.2658 13.7998 35.4942 13.7998 35.7769V44.9767H8.68879V31.6881H19.4219V33.2214C19.4219 33.5042 19.6506 33.7325 19.933 33.7325H25.044C25.3267 33.7325 25.5551 33.5042 25.5551 33.2214V31.6881H36.2881V44.9767ZM24.5329 31.6881V32.7103H20.4441V31.6881H24.5329ZM20.4441 30.6659V29.6437H24.5329V30.6659H20.4441ZM36.7992 30.6659H25.5551V29.1326C25.5551 28.8499 25.3267 28.6215 25.044 28.6215H19.933C19.6506 28.6215 19.4219 28.8499 19.4219 29.1326V30.6659H5.78269L12.9984 22.9994H31.979L39.1942 30.6659H36.7992Z" fill="#9E5F14"/>
<path d="M38.3325 3.57764H39.3547V4.59983H38.3325V3.57764ZM15.333 40.3767H16.3552V41.3989H15.333V40.3767ZM25.0439 36.288H27.0883V38.3324H25.0439V36.288ZM28.1105 36.288H30.1549V38.3324H28.1105V36.288ZM25.0439 39.3545H27.0883V41.3989H25.0439V39.3545ZM28.1105 39.3545H30.1549V41.3989H28.1105V39.3545Z" fill="#9E5F14"/>
</svg>
