<svg width="46" height="44" viewBox="0 0 46 44" fill="none" xmlns="http://www.w3.org/2000/svg">
<path fill-rule="evenodd" clip-rule="evenodd" d="M43.503 21.6254H1.76453C1.62379 21.6254 1.4888 21.5695 1.38928 21.47C1.28976 21.3705 1.23385 21.2355 1.23385 21.0947V15.8675C1.23385 15.7267 1.28976 15.5917 1.38928 15.4922C1.4888 15.3927 1.62379 15.3368 1.76453 15.3368H43.5561C43.6968 15.3368 43.8318 15.3927 43.9313 15.4922C44.0309 15.5917 44.0868 15.7267 44.0868 15.8675V21.0947C44.0868 21.2355 44.0309 21.3705 43.9313 21.47C43.8318 21.5695 43.6968 21.6254 43.5561 21.6254H43.503ZM2.29522 20.5641H43.0254V16.3982H2.26868L2.29522 20.5641ZM44.7501 43.4366H0.517419C-0.172473 43.4366 -0.172473 42.3753 0.517419 42.3753H44.7501C45.44 42.3753 45.44 43.4366 44.7501 43.4366Z" fill="#9E5F14"/>
<path fill-rule="evenodd" clip-rule="evenodd" d="M25.9638 27.1445H9.11455C9.04486 27.1445 8.97585 27.1308 8.91146 27.1041C8.84708 27.0774 8.78858 27.0384 8.7393 26.9891C8.69002 26.9398 8.65093 26.8813 8.62426 26.8169C8.59759 26.7525 8.58386 26.6835 8.58386 26.6138V21.0947C8.58386 20.4048 9.64523 20.4048 9.64523 21.0947V26.1362H25.4332V21.0947C25.4332 20.4048 26.4945 20.4048 26.4945 21.0947V26.6669C26.4945 26.8076 26.4386 26.9426 26.3391 27.0421C26.2396 27.1417 26.1046 27.1976 25.9638 27.1976V27.1445Z" fill="#9E5F14"/>
<path fill-rule="evenodd" clip-rule="evenodd" d="M19.6487 24.8892H15.4032C14.7133 24.8892 14.8725 24.0135 14.8725 23.3237C14.8725 22.6338 15.9339 22.6338 15.9339 23.3237V23.8543H19.118C19.118 23.4829 19.0384 22.793 19.6487 22.793C20.3386 22.793 20.1794 23.6951 20.1794 24.385C20.1794 24.5258 20.1234 24.6608 20.0239 24.7603C19.9244 24.8598 19.7894 24.8892 19.6487 24.8892ZM25.9638 32.7168H9.11455C8.9738 32.7168 8.83882 32.6609 8.7393 32.5614C8.63977 32.4618 8.58386 32.3269 8.58386 32.1861V26.6139C8.58386 25.924 9.64523 25.924 9.64523 26.6139V31.6554H25.4332V26.6139C25.4332 25.924 26.4945 25.924 26.4945 26.6139V32.1861C26.4945 32.3269 26.4386 32.4618 26.3391 32.5614C26.2396 32.6609 26.1046 32.7168 25.9638 32.7168Z" fill="#9E5F14"/>
<path fill-rule="evenodd" clip-rule="evenodd" d="M19.6487 30.4614H15.4032C14.7133 30.4614 14.8725 29.5592 14.8725 28.8693C14.8725 28.1794 15.9339 28.1794 15.9339 28.8693V29.4H19.118C19.118 29.0285 19.0384 28.3387 19.6487 28.3387C20.3386 28.3387 20.1793 29.2408 20.1793 29.9307C20.1793 30.0004 20.1656 30.0694 20.139 30.1338C20.1123 30.1982 20.0732 30.2567 20.0239 30.306C19.9746 30.3552 19.9161 30.3943 19.8517 30.421C19.7874 30.4477 19.7184 30.4614 19.6487 30.4614ZM40.1332 43.4367H36.153C36.0123 43.4367 35.8773 43.3808 35.7778 43.2812C35.6782 43.1817 35.6223 43.0467 35.6223 42.906V21.0682C35.6223 20.9275 35.6782 20.7925 35.7778 20.693C35.8773 20.5935 36.0123 20.5376 36.153 20.5376H40.1332C40.2739 20.5376 40.4089 20.5935 40.5084 20.693C40.6079 20.7925 40.6638 20.9275 40.6638 21.0682V42.906C40.6638 43.0467 40.6079 43.1817 40.5084 43.2812C40.4089 43.3808 40.2739 43.4367 40.1332 43.4367ZM36.6837 42.3753H39.6025V21.5989H36.6837V42.3753ZM9.11453 43.4367H5.13439C4.99364 43.4367 4.85866 43.3808 4.75913 43.2812C4.65961 43.1817 4.6037 43.0467 4.6037 42.906V21.0682C4.6037 20.9275 4.65961 20.7925 4.75913 20.693C4.85866 20.5935 4.99364 20.5376 5.13439 20.5376H9.11453C9.25528 20.5376 9.39026 20.5935 9.48979 20.693C9.58931 20.7925 9.64522 20.9275 9.64522 21.0682V42.906C9.64522 43.0467 9.58931 43.1817 9.48979 43.2812C9.39026 43.3808 9.25528 43.4367 9.11453 43.4367ZM5.66507 42.3753H8.58385V21.5989H5.66507V42.3753ZM24.0799 12.3385H6.93872C6.79797 12.3385 6.66299 12.2825 6.56347 12.183C6.46394 12.0835 6.40803 11.9485 6.40803 11.8078V2.22888C6.40803 0.98177 7.41634 0 8.63692 0H22.3286C23.6023 0 24.6106 1.0083 24.6106 2.25542V11.8078C24.6106 11.8775 24.5969 11.9465 24.5702 12.0109C24.5435 12.0752 24.5044 12.1337 24.4551 12.183C24.4059 12.2323 24.3474 12.2714 24.283 12.2981C24.2186 12.3247 24.1496 12.3385 24.0799 12.3385ZM7.46941 11.2771H23.5492V2.25542C23.5492 2.09635 23.5175 1.93889 23.4558 1.79226C23.3942 1.64564 23.3039 1.51281 23.1902 1.40158C23.0764 1.29035 22.9417 1.20296 22.7937 1.14453C22.6458 1.08611 22.4876 1.05784 22.3286 1.06137H8.63692C8.48486 1.05784 8.33364 1.08473 8.19213 1.14049C8.05062 1.19624 7.92169 1.27973 7.81292 1.38603C7.70414 1.49233 7.61772 1.61931 7.55872 1.7595C7.49973 1.89969 7.46936 2.05025 7.46941 2.20235V11.2771Z" fill="#9E5F14"/>
<path fill-rule="evenodd" clip-rule="evenodd" d="M24.1064 16.4248H6.91221C6.23416 16.4249 5.58348 16.1573 5.10155 15.6804C4.61962 15.2034 4.34537 14.5555 4.33838 13.8775V11.8078C4.33838 11.6671 4.39429 11.5321 4.49381 11.4326C4.59334 11.3331 4.72832 11.2772 4.86907 11.2772H26.1496C26.2903 11.2772 26.4253 11.3331 26.5248 11.4326C26.6244 11.5321 26.6803 11.6671 26.6803 11.8078V13.851C26.6733 14.529 26.399 15.1769 25.9171 15.6538C25.4352 16.1308 24.7845 16.4249 24.1064 16.4248ZM5.39975 12.3651V13.8775C5.39975 14.7001 6.08964 15.3634 6.91221 15.3634H24.1064C24.503 15.3635 24.8838 15.2078 25.1666 14.9299C25.4495 14.652 25.6119 14.274 25.6189 13.8775V12.3385L5.39975 12.3651ZM38.037 16.4248H30.9523C30.8826 16.4248 30.8136 16.4111 30.7492 16.3844C30.6848 16.3578 30.6263 16.3187 30.577 16.2694C30.5278 16.2201 30.4887 16.1616 30.462 16.0972C30.4353 16.0328 30.4216 15.9638 30.4216 15.8941V8.46452C30.4216 8.32378 30.4775 8.1888 30.577 8.08927C30.6766 7.98975 30.8116 7.93384 30.9523 7.93384H38.037C38.1777 7.93384 38.3127 7.98975 38.4122 8.08927C38.5117 8.1888 38.5676 8.32378 38.5676 8.46452V15.8941C38.5676 15.9638 38.5539 16.0328 38.5273 16.0972C38.5006 16.1616 38.4615 16.2201 38.4122 16.2694C38.3629 16.3187 38.3044 16.3578 38.24 16.3844C38.1757 16.4111 38.1067 16.4248 38.037 16.4248ZM31.483 15.3634H37.5063V8.99521H31.483V15.3634Z" fill="#9E5F14"/>
<path fill-rule="evenodd" clip-rule="evenodd" d="M41.0884 13.8775H38.037C37.8962 13.8775 37.7612 13.8216 37.6617 13.722C37.5622 13.6225 37.5063 13.4875 37.5063 13.3468V8.46447C37.5063 8.32373 37.5622 8.18875 37.6617 8.08922C37.7612 7.9897 37.8962 7.93379 38.037 7.93379H41.0884C41.2292 7.93379 41.3641 7.9897 41.4637 8.08922C41.5632 8.18875 41.6191 8.32373 41.6191 8.46447V13.3468C41.6191 13.4875 41.5632 13.6225 41.4637 13.722C41.3641 13.8216 41.2292 13.8775 41.0884 13.8775ZM38.5677 12.8161H40.5577V8.99516H38.5677V12.8161ZM18.1628 14.4082H12.8559C12.1395 14.4082 12.1395 13.3468 12.8559 13.3468H18.1628C18.8792 13.3468 18.8792 14.4082 18.1628 14.4082ZM36.153 29.9307H25.9904C25.274 29.9307 25.274 28.8694 25.9904 28.8694H36.1796C36.8695 28.8694 36.8429 29.9307 36.153 29.9307ZM13.307 8.88902C13.2031 8.88756 13.102 8.85565 13.0161 8.79725C12.9301 8.73884 12.8633 8.6565 12.8237 8.56045C12.7842 8.46439 12.7737 8.35884 12.7936 8.25688C12.8134 8.15492 12.8628 8.06103 12.9355 7.98686L17.3137 3.60869C17.8178 3.13108 18.5608 3.87404 18.0832 4.37819L13.705 8.72982C13.6534 8.78257 13.5913 8.82398 13.5228 8.8514C13.4542 8.87881 13.3807 8.89162 13.307 8.88902ZM15.5889 9.52585C15.4851 9.52439 15.3839 9.49248 15.298 9.43407C15.2121 9.37566 15.1452 9.29333 15.1057 9.19727C15.0661 9.10122 15.0556 8.99567 15.0755 8.8937C15.0954 8.79174 15.1447 8.69785 15.2175 8.62368L17.9505 5.89064C18.4281 5.35996 19.1976 6.15599 18.6934 6.63361L15.9604 9.36664C15.8624 9.46663 15.7289 9.52385 15.5889 9.52585ZM12.6967 6.63361C12.5928 6.63215 12.4917 6.60024 12.4058 6.54183C12.3199 6.48342 12.253 6.40109 12.2134 6.30503C12.1739 6.20898 12.1634 6.10342 12.1833 6.00146C12.2031 5.8995 12.2525 5.80561 12.3252 5.73144L15.0582 2.9984C15.5624 2.49425 16.3054 3.26375 15.8012 3.74136L13.0682 6.4744C12.9768 6.56822 12.8274 6.62492 12.6967 6.63361Z" fill="#9E5F14"/>
<path fill-rule="evenodd" clip-rule="evenodd" d="M38.0369 14.196H30.9523C30.8115 14.196 30.6765 14.1401 30.577 14.0405C30.4775 13.941 30.4216 13.806 30.4216 13.6653V10.7465C30.4216 10.6058 30.4775 10.4708 30.577 10.3713C30.6765 10.2717 30.8115 10.2158 30.9523 10.2158H38.0369C38.1777 10.2158 38.3127 10.2717 38.4122 10.3713C38.5117 10.4708 38.5676 10.6058 38.5676 10.7465V13.6653C38.5676 13.806 38.5117 13.941 38.4122 14.0405C38.3127 14.1401 38.1777 14.196 38.0369 14.196ZM31.4829 13.1346H37.5062V11.2772H31.4829V13.1346Z" fill="#9E5F14"/>
</svg>
