<svg width="50" height="45" viewBox="0 0 50 45" fill="none" xmlns="http://www.w3.org/2000/svg">
<path d="M46.6217 24.8564H42.6752V16.7018C42.6744 16.0122 42.4001 15.3511 41.9126 14.8635C41.425 14.3759 40.7639 14.1017 40.0743 14.1009H18.5001C17.8105 14.1017 17.1494 14.3759 16.6618 14.8635C16.1742 15.3511 15.9 16.0122 15.8992 16.7018V24.8564H11.9526C10.5221 24.8564 9.35864 25.9983 9.35864 27.4021V41.8647C9.37026 42.4379 9.60613 42.9837 10.0156 43.385C10.4251 43.7863 10.9756 44.011 11.5489 44.011C12.1222 44.011 12.6727 43.7863 13.0822 43.385C13.4917 42.9837 13.7276 42.4379 13.7392 41.8647V37.0491H44.8057V41.8501C44.816 42.4281 45.0528 42.979 45.4652 43.3841C45.8777 43.7892 46.4327 44.0162 47.0108 44.0162C47.5889 44.0162 48.1439 43.7892 48.5563 43.3841C48.9687 42.979 49.2055 42.4281 49.2158 41.8501V27.4021C49.2158 25.9983 48.0521 24.8564 46.6217 24.8564ZM10.559 35.8487V34.0637H48.0154V35.8487H10.559ZM17.0996 16.7018C17.1 16.3305 17.2477 15.9745 17.5103 15.7119C17.7728 15.4494 18.1288 15.3017 18.5001 15.3013H40.0743C40.4456 15.3017 40.8016 15.4494 41.0642 15.7119C41.3267 15.9745 41.4744 16.3304 41.4748 16.7018V24.8564H40.0454V22.5483C40.0454 21.1446 38.8817 20.0026 37.4514 20.0026H32.5973C31.1669 20.0026 30.0033 21.1446 30.0033 22.5483V24.856H28.5712V22.5483C28.5712 21.1446 27.4074 20.0026 25.977 20.0026H21.123C19.6926 20.0026 18.529 21.1446 18.529 22.5483V24.856H17.0996V16.7018ZM31.2037 24.8564V22.5483C31.2106 22.1853 31.3612 21.8398 31.6225 21.5876C31.8837 21.3354 32.2343 21.1972 32.5973 21.203H37.4519C37.8149 21.1973 38.1653 21.3357 38.4264 21.5878C38.6875 21.84 38.8381 22.1854 38.845 22.5483V24.856L31.2037 24.8564ZM19.7299 24.8564V22.5483C19.7368 22.1853 19.8874 21.8398 20.1487 21.5876C20.4099 21.3354 20.7605 21.1972 21.1235 21.203H25.9775C26.3405 21.1973 26.691 21.3356 26.9522 21.5878C27.2133 21.8399 27.3639 22.1853 27.3708 22.5483V24.856L19.7299 24.8564ZM11.9531 26.0568H46.6217C46.9848 26.0509 47.3354 26.1892 47.5966 26.4414C47.8579 26.6935 48.0085 27.039 48.0154 27.4021V32.8633H10.559V27.4021C10.566 27.0391 10.7165 26.6936 10.9778 26.4414C11.239 26.1892 11.5896 26.0509 11.9526 26.0568H11.9531ZM12.5393 41.8645C12.5315 42.1219 12.4238 42.3661 12.239 42.5454C12.0543 42.7247 11.8069 42.825 11.5494 42.825C11.2919 42.825 11.0446 42.7247 10.8598 42.5454C10.675 42.3661 10.5673 42.1219 10.5595 41.8645V37.0491H12.5393V41.8645ZM47.0112 42.8158C46.75 42.8206 46.4976 42.7216 46.3093 42.5406C46.121 42.3595 46.0121 42.1112 46.0066 41.8501V37.0491H48.0154V41.8501C48.0099 42.1112 47.901 42.3596 47.7127 42.5406C47.5243 42.7216 47.2719 42.8206 47.0107 42.8158H47.0112Z" fill="#9E5F14"/>
<path d="M7.16634 42.3648H5.77788V18.9671H9.67197C9.78622 18.9674 9.89871 18.9389 9.99909 18.8844C10.0995 18.8298 10.1845 18.7509 10.2465 18.6549C10.3084 18.5589 10.3452 18.4488 10.3535 18.3349C10.3618 18.2209 10.3413 18.1067 10.2939 18.0028L7.86757 12.697C7.81289 12.578 7.72524 12.4771 7.615 12.4064C7.50476 12.3356 7.37655 12.298 7.24557 12.2979H3.1098C2.97885 12.2979 2.85068 12.3356 2.74046 12.4062C2.63023 12.4769 2.54258 12.5777 2.48789 12.6967L0.0613866 18.0021C0.0140022 18.106 -0.0064897 18.2202 0.00179422 18.3342C0.0100781 18.4481 0.0468722 18.5582 0.108794 18.6542C0.170717 18.7502 0.25578 18.8291 0.356167 18.8837C0.456553 18.9382 0.569041 18.9667 0.683293 18.9664H2.11037V20.7512C1.95321 20.8498 1.82357 20.9865 1.73354 21.1488C1.64352 21.311 1.59602 21.4934 1.59549 21.6789C1.59828 21.9728 1.71698 22.2537 1.92578 22.4605C2.13459 22.6674 2.41661 22.7834 2.71051 22.7834C3.00442 22.7834 3.28644 22.6674 3.49524 22.4605C3.70405 22.2537 3.82275 21.9728 3.82553 21.6789C3.82502 21.4934 3.77755 21.311 3.68754 21.1488C3.59753 20.9866 3.46791 20.8498 3.31076 20.7512V18.9664H4.57748V42.3648H3.18912C3.02994 42.3648 2.87728 42.4281 2.76472 42.5406C2.65216 42.6532 2.58892 42.8058 2.58892 42.965C2.58892 43.1242 2.65216 43.2769 2.76472 43.3894C2.87728 43.502 3.02994 43.5652 3.18912 43.5652H7.16634C7.32552 43.5652 7.47819 43.502 7.59074 43.3894C7.7033 43.2769 7.76654 43.1242 7.76654 42.965C7.76654 42.8058 7.7033 42.6532 7.59074 42.5406C7.47819 42.4281 7.32552 42.3648 7.16634 42.3648ZM2.71056 21.7767C2.68631 21.7749 2.66373 21.7637 2.64774 21.7454C2.63174 21.727 2.62362 21.7031 2.62514 21.6789C2.62538 21.6676 2.62737 21.6565 2.63104 21.6459C2.65755 21.6496 2.68429 21.6516 2.71106 21.6518C2.73764 21.6516 2.76418 21.6496 2.79049 21.6459C2.7942 21.6565 2.79619 21.6676 2.79639 21.6789C2.7979 21.7032 2.78973 21.7272 2.77365 21.7455C2.75757 21.7638 2.73489 21.775 2.71056 21.7767ZM3.44081 13.4976H6.91406L8.866 17.766H1.48936L3.44081 13.4976ZM17.457 0C17.2979 0 17.1452 0.063235 17.0326 0.175794C16.9201 0.288353 16.8568 0.441016 16.8568 0.600199V10.7736C16.8568 10.9327 16.9201 11.0854 17.0326 11.198C17.1452 11.3105 17.2979 11.3738 17.457 11.3738H41.1177C41.2769 11.3738 41.4295 11.3105 41.5421 11.198C41.6546 11.0854 41.7179 10.9327 41.7179 10.7736V0.600199C41.7179 0.441016 41.6546 0.288353 41.5421 0.175794C41.4295 0.063235 41.2769 0 41.1177 0H17.457ZM31.3839 10.1734L31.298 10.0819L34.1008 7.72116L36.7195 10.1738L31.3839 10.1734ZM22.2608 10.1734L26.1356 6.3409L29.7368 10.1729L22.2608 10.1734ZM40.5177 10.1734H38.4755L34.5322 6.48015C34.425 6.37967 34.2846 6.32203 34.1377 6.31816C33.9908 6.31429 33.8475 6.36445 33.7351 6.45914L30.4748 9.20535L26.5885 5.07028C26.5336 5.01187 26.4677 4.96503 26.3944 4.93254C26.3212 4.90005 26.2422 4.88257 26.1621 4.88112C26.0819 4.87884 26.0021 4.89305 25.9276 4.92287C25.8531 4.95269 25.7856 4.99748 25.7291 5.05447L20.5535 10.1729H18.0572V1.1999H40.5175L40.5177 10.1734Z" fill="#9E5F14"/>
<path d="M30.4933 6.78178C31.6175 6.78178 32.5322 5.80485 32.5322 4.60426C32.5322 3.40366 31.6175 2.42664 30.4933 2.42664C29.3691 2.42664 28.4543 3.40356 28.4543 4.60426C28.4543 5.80495 29.3692 6.78178 30.4933 6.78178ZM30.4933 3.62703C30.9557 3.62703 31.3318 4.06538 31.3318 4.60426C31.3318 5.14314 30.9557 5.58138 30.4933 5.58138C30.031 5.58138 29.6547 5.14303 29.6547 4.60426C29.6547 4.06548 30.031 3.62703 30.4933 3.62703Z" fill="#9E5F14"/>
</svg>
