<svg width="18" height="18" viewBox="0 0 18 18" fill="none" xmlns="http://www.w3.org/2000/svg">
<path d="M16.0714 1.28571H13.5V0.642857C13.5 0.472361 13.4323 0.308848 13.3117 0.188288C13.1912 0.0677294 13.0276 0 12.8571 0C12.6866 0 12.5231 0.0677294 12.4026 0.188288C12.282 0.308848 12.2143 0.472361 12.2143 0.642857V1.28571H5.78571V0.642857C5.78571 0.472361 5.71798 0.308848 5.59743 0.188288C5.47687 0.0677294 5.31335 0 5.14286 0C4.97236 0 4.80885 0.0677294 4.68829 0.188288C4.56773 0.308848 4.5 0.472361 4.5 0.642857V1.28571H1.92857C1.41708 1.28571 0.926543 1.4889 0.564866 1.85058C0.203188 2.21226 0 2.7028 0 3.21429V16.0714C0 16.5829 0.203188 17.0735 0.564866 17.4351C0.926543 17.7968 1.41708 18 1.92857 18H16.0714C16.5829 18 17.0735 17.7968 17.4351 17.4351C17.7968 17.0735 18 16.5829 18 16.0714V3.21429C18 2.7028 17.7968 2.21226 17.4351 1.85058C17.0735 1.4889 16.5829 1.28571 16.0714 1.28571ZM1.92857 2.57143H16.0714C16.2419 2.57143 16.4054 2.63916 16.526 2.75972C16.6466 2.88028 16.7143 3.04379 16.7143 3.21429V5.14286H1.28571V3.21429C1.28571 3.04379 1.35344 2.88028 1.474 2.75972C1.59456 2.63916 1.75808 2.57143 1.92857 2.57143ZM16.0714 16.7143H1.92857C1.75808 16.7143 1.59456 16.6466 1.474 16.526C1.35344 16.4054 1.28571 16.2419 1.28571 16.0714V6.42857H16.7143V16.0714C16.7143 16.2419 16.6466 16.4054 16.526 16.526C16.4054 16.6466 16.2419 16.7143 16.0714 16.7143Z" fill="#FBF9F9"/>
<path d="M11.7964 8.51208L7.74642 11.9835L6.23828 10.476C6.11703 10.3589 5.95465 10.2941 5.78609 10.2956C5.61754 10.297 5.4563 10.3646 5.33711 10.4838C5.21792 10.603 5.15031 10.7643 5.14884 10.9328C5.14738 11.1014 5.21217 11.2638 5.32928 11.385L7.25785 13.3136C7.37236 13.4279 7.52578 13.4949 7.68748 13.5011C7.84919 13.5073 8.00728 13.4523 8.13021 13.347L12.6302 9.48987C12.6979 9.43614 12.7542 9.3693 12.7955 9.29335C12.8368 9.2174 12.8623 9.1339 12.8706 9.04783C12.8789 8.96177 12.8698 8.87492 12.8437 8.79248C12.8177 8.71004 12.7753 8.6337 12.719 8.56803C12.6628 8.50236 12.5939 8.44871 12.5164 8.41029C12.439 8.37187 12.3546 8.34947 12.2682 8.34442C12.1819 8.33938 12.0955 8.3518 12.0141 8.38094C11.9327 8.41008 11.858 8.45534 11.7945 8.51401L11.7964 8.51208Z" fill="#FBF9F9"/>
</svg>
