<svg width="19" height="13" viewBox="0 0 19 13" fill="none" xmlns="http://www.w3.org/2000/svg">
<path d="M16.499 0H1.58984C0.711437 0 0 0.715854 0 1.58984V11.1289C0 12.0081 0.716666 12.7187 1.58984 12.7187H16.499C17.3701 12.7187 18.0889 12.0111 18.0889 11.1289V1.58984C18.0889 0.717408 17.3803 0 16.499 0ZM16.2764 1.0599L10.1686 7.13547C9.86834 7.43577 9.46911 7.60111 9.04444 7.60111C8.61978 7.60111 8.22055 7.43573 7.91926 7.13448L1.81249 1.0599H16.2764ZM1.0599 10.9132V1.80624L5.63999 6.3622L1.0599 10.9132ZM1.81316 11.6589L6.39145 7.10967L7.1708 7.88492C7.67128 8.3854 8.33668 8.66101 9.04444 8.66101C9.75221 8.66101 10.4176 8.3854 10.9171 7.88591L11.6974 7.10967L16.2757 11.6589H1.81316ZM17.029 10.9132L12.4489 6.3622L17.029 1.80624V10.9132Z" fill="#FCFBFB"/>
</svg>
