<svg width="57" height="55" viewBox="0 0 57 55" fill="none" xmlns="http://www.w3.org/2000/svg">
<path fill-rule="evenodd" clip-rule="evenodd" d="M5.42744 16.8569L2.07722 17.9795C1.87491 18.0472 1.65396 18.0319 1.46297 17.9368C1.27198 17.8416 1.12659 17.6746 1.05879 17.4723L0.0417402 14.437C0.00814579 14.3368 -0.00538279 14.231 0.00192756 14.1256C0.00923791 14.0202 0.0372439 13.9172 0.0843455 13.8227C0.131447 13.7281 0.196721 13.6437 0.276439 13.5744C0.356156 13.505 0.448755 13.4521 0.548945 13.4185L40.4705 0.0416796C40.6728 -0.0261041 40.8938 -0.0107479 41.0848 0.0843702C41.2758 0.179488 41.4212 0.346578 41.489 0.548884L42.506 3.58418C42.5396 3.68435 42.5531 3.79017 42.5458 3.89557C42.5385 4.00097 42.5105 4.1039 42.4634 4.19848C42.4163 4.29306 42.351 4.37743 42.2713 4.44677C42.1916 4.51611 42.099 4.56907 41.9988 4.60261L38.8575 5.65518V25.3702H55.973C56.1863 25.3702 56.391 25.455 56.5419 25.6058C56.6927 25.7567 56.7775 25.9613 56.7775 26.1747V53.4958C56.7775 53.7092 56.6927 53.9139 56.5419 54.0647C56.391 54.2156 56.1863 54.3004 55.973 54.3004H6.23198C6.0186 54.3004 5.81397 54.2156 5.66309 54.0647C5.5122 53.9139 5.42744 53.7092 5.42744 53.4958V16.8569ZM37.2485 6.19434L7.03652 16.3176V52.6913H23.3475V26.1747C23.3475 25.9613 23.4323 25.7567 23.5832 25.6058C23.734 25.455 23.9387 25.3702 24.1521 25.3702H25.9516V14.1917C25.9516 13.9783 26.0363 13.7737 26.1872 13.6228C26.3381 13.4719 26.5427 13.3871 26.7561 13.3871H34.3564C34.5698 13.3871 34.7744 13.4719 34.9253 13.6228C35.0762 13.7737 35.1609 13.9783 35.1609 14.1917V25.3702H37.2485V6.19434ZM51.6948 52.6913H55.1684V26.9793H24.9566V52.6913H39.258V35.8063C39.258 35.5929 39.3427 35.3883 39.4936 35.2374C39.6445 35.0865 39.8491 35.0018 40.0625 35.0018H50.8902C51.1036 35.0018 51.3083 35.0865 51.4591 35.2374C51.61 35.3883 51.6948 35.5929 51.6948 35.8063V52.6913ZM27.5607 25.3702H33.5518V14.9962H27.5607V25.3702ZM40.8671 52.6913H50.0857V36.6109H40.8671V52.6913ZM40.2189 1.82304L1.82299 14.6885L2.32882 16.1981L40.7248 3.33259L40.2189 1.82304ZM20.2625 20.6874V46.3114C20.2625 46.5248 20.1777 46.7294 20.0268 46.8803C19.8759 47.0312 19.6713 47.116 19.4579 47.116H11.8577C11.6443 47.116 11.4396 47.0312 11.2888 46.8803C11.1379 46.7294 11.0531 46.5248 11.0531 46.3114V20.6874C11.0531 20.474 11.1379 20.2694 11.2888 20.1185C11.4396 19.9676 11.6443 19.8829 11.8577 19.8829H19.4579C19.6713 19.8829 19.8759 19.9676 20.0268 20.1185C20.1777 20.2694 20.2625 20.474 20.2625 20.6874ZM18.6534 25.3702V21.492H12.6622V25.3702H18.6534ZM18.6534 32.6949V26.9793H12.6622V32.6949H18.6534ZM18.6534 39.0307V34.304H12.6622V39.0307H18.6534ZM12.6622 40.6398V45.5069H18.6534V40.6398H12.6622ZM36.1015 31.7971V38.6274C36.1015 38.8408 36.0168 39.0454 35.8659 39.1963C35.715 39.3472 35.5104 39.4319 35.297 39.4319H28.4667C28.2533 39.4319 28.0487 39.3472 27.8978 39.1963C27.7469 39.0454 27.6621 38.8408 27.6621 38.6274V31.7971C27.6621 31.5837 27.7469 31.3791 27.8978 31.2282C28.0487 31.0773 28.2533 30.9925 28.4667 30.9925H35.297C35.5104 30.9925 35.715 31.0773 35.8659 31.2282C36.0168 31.3791 36.1015 31.5837 36.1015 31.7971ZM34.4925 32.6016H29.2712V37.8228H34.4925V32.6016Z" fill="#9E5F14"/>
</svg>
