<svg width="59" height="52" viewBox="0 0 59 52" fill="none" xmlns="http://www.w3.org/2000/svg">
<path d="M58.1687 49.6938H56.0575V24.1308C56.0577 24.0213 56.0363 23.913 55.9945 23.8118C55.9527 23.7107 55.8914 23.6187 55.8141 23.5413C55.7368 23.4639 55.645 23.4024 55.5439 23.3605C55.4428 23.3186 55.3344 23.297 55.225 23.297H44.9374V9.26616H48.0761C48.2264 9.26615 48.374 9.22548 48.5031 9.14846C48.6323 9.07144 48.7382 8.96094 48.8096 8.82865C48.8811 8.69636 48.9154 8.54721 48.909 8.39699C48.9026 8.24677 48.8557 8.10108 48.7733 7.97533L43.7758 0.375425C43.6999 0.259878 43.5964 0.165053 43.4747 0.0995096C43.3529 0.033966 43.2168 -0.000232471 43.0786 1.18936e-06H15.8908C15.7525 -0.000232471 15.6164 0.033966 15.4947 0.0995096C15.3729 0.165053 15.2694 0.259878 15.1935 0.375425L10.196 7.97533C10.1136 8.10108 10.0667 8.24677 10.0603 8.39699C10.0539 8.54721 10.0883 8.69636 10.1597 8.82865C10.2312 8.96094 10.3371 9.07144 10.4662 9.14846C10.5953 9.22548 10.7429 9.26615 10.8932 9.26616H14.0319V23.297H3.74431C3.63498 23.2972 3.52676 23.3189 3.42581 23.3609C3.32487 23.4029 3.23318 23.4643 3.15599 23.5417C3.0788 23.6192 3.01761 23.711 2.97592 23.8121C2.93423 23.9132 2.91285 24.0214 2.91301 24.1308V49.6938H0.801862C0.586418 49.702 0.382543 49.7934 0.233032 49.9487C0.0835213 50.1041 0 50.3113 0 50.5269C0 50.7425 0.0835213 50.9497 0.233032 51.105C0.382543 51.2604 0.586418 51.3518 0.801862 51.36H58.1687C58.3841 51.3518 58.588 51.2604 58.7375 51.105C58.887 50.9497 58.9705 50.7425 58.9705 50.5269C58.9705 50.3113 58.887 50.1041 58.7375 49.9487C58.588 49.7934 58.3841 49.702 58.1687 49.6938ZM35.6018 49.6938H23.3688V43.8796H35.6018V49.6938ZM54.3925 24.9633V49.6938H44.9386V24.9633H54.3925ZM16.3393 1.66869H42.6312L46.5317 7.60235H12.4376L16.3393 1.66869ZM43.2772 9.2686V49.6938H37.268V43.0483C37.268 42.9388 37.2464 42.8305 37.2045 42.7294C37.1626 42.6283 37.1012 42.5365 37.0237 42.4592C36.9463 42.3818 36.8544 42.3205 36.7532 42.2788C36.6521 42.237 36.5437 42.2156 36.4343 42.2157H22.5375C22.428 42.2156 22.3197 42.237 22.2185 42.2788C22.1174 42.3205 22.0254 42.3818 21.948 42.4592C21.8706 42.5365 21.8091 42.6283 21.7672 42.7294C21.7253 42.8305 21.7037 42.9388 21.7037 43.0483V49.6938H15.6982V9.26616L43.2772 9.2686ZM4.57805 24.9633H14.0319V49.6938H4.57805V24.9633Z" fill="#9E5F14"/>
<path d="M7.90552 29.299H10.7029V32.0964H7.90552V29.299ZM7.90552 35.7738H10.7029V38.5712H7.90552V35.7738ZM48.2673 29.299H51.0647V32.0964H48.2673V29.299ZM48.2673 35.7738H51.0647V38.5712H48.2673V35.7738ZM27.8201 19.9816H31.1514V16.8563H34.2766V13.5238H31.1514L31.1501 10.3973H27.8189V13.5238H24.6936V16.8563H27.8189L27.8201 19.9816ZM19.4559 22.8241H22.2533V25.6215H19.4559V22.8241ZM25.2092 22.8241H28.0066V25.6215H25.2092V22.8241ZM30.9637 22.8241H33.761V25.6215H30.9637V22.8241ZM36.7181 22.8241H39.5155V25.6215H36.7181V22.8241ZM19.4559 29.299H22.2533V32.0964H19.4559V29.299ZM25.2092 29.299H28.0066V32.0964H25.2092V29.299ZM30.9637 29.299H33.761V32.0964H30.9637V29.299ZM36.7181 29.299H39.5155V32.0964H36.7181V29.299ZM19.4559 35.7738H22.2533V38.5712H19.4559V35.7738ZM25.2092 35.7738H28.0066V38.5712H25.2092V35.7738ZM30.9637 35.7738H33.761V38.5712H30.9637V35.7738ZM36.7181 35.7738H39.5155V38.5712H36.7181V35.7738Z" fill="#9E5F14"/>
</svg>
