<svg width="46" height="44" viewBox="0 0 46 44" fill="none" xmlns="http://www.w3.org/2000/svg">
<path fill-rule="evenodd" clip-rule="evenodd" d="M43.503 21.6254H1.76453C1.62379 21.6254 1.4888 21.5695 1.38928 21.47C1.28976 21.3705 1.23385 21.2355 1.23385 21.0947V15.8675C1.23385 15.7267 1.28976 15.5917 1.38928 15.4922C1.4888 15.3927 1.62379 15.3368 1.76453 15.3368H43.5561C43.6968 15.3368 43.8318 15.3927 43.9313 15.4922C44.0309 15.5917 44.0868 15.7267 44.0868 15.8675V21.0947C44.0868 21.2355 44.0309 21.3705 43.9313 21.47C43.8318 21.5695 43.6968 21.6254 43.5561 21.6254H43.503ZM2.29522 20.5641H43.0254V16.3982H2.26868L2.29522 20.5641ZM44.7501 43.4366H0.517419C-0.172473 43.4366 -0.172473 42.3753 0.517419 42.3753H44.7501C45.44 42.3753 45.44 43.4366 44.7501 43.4366Z" fill="#9E5F14"/>
<path fill-rule="evenodd" clip-rule="evenodd" d="M25.964 27.1445H9.11467C9.04498 27.1445 8.97597 27.1308 8.91159 27.1041C8.8472 27.0774 8.7887 27.0384 8.73942 26.9891C8.69014 26.9398 8.65105 26.8813 8.62438 26.8169C8.59771 26.7525 8.58398 26.6835 8.58398 26.6138V21.0947C8.58398 20.4048 9.64536 20.4048 9.64536 21.0947V26.1362H25.4333V21.0947C25.4333 20.4048 26.4947 20.4048 26.4947 21.0947V26.6669C26.4947 26.8076 26.4387 26.9426 26.3392 27.0421C26.2397 27.1417 26.1047 27.1976 25.964 27.1976V27.1445Z" fill="#9E5F14"/>
<path fill-rule="evenodd" clip-rule="evenodd" d="M19.6488 24.8892H15.4033C14.7134 24.8892 14.8726 24.0135 14.8726 23.3237C14.8726 22.6338 15.934 22.6338 15.934 23.3237V23.8543H19.1181C19.1181 23.4829 19.0385 22.793 19.6488 22.793C20.3387 22.793 20.1795 23.6951 20.1795 24.385C20.1795 24.5258 20.1236 24.6608 20.024 24.7603C19.9245 24.8598 19.7895 24.8892 19.6488 24.8892ZM25.964 32.7168H9.11467C8.97392 32.7168 8.83894 32.6609 8.73942 32.5614C8.6399 32.4618 8.58398 32.3269 8.58398 32.1861V26.6139C8.58398 25.924 9.64536 25.924 9.64536 26.6139V31.6554H25.4333V26.6139C25.4333 25.924 26.4947 25.924 26.4947 26.6139V32.1861C26.4947 32.3269 26.4387 32.4618 26.3392 32.5614C26.2397 32.6609 26.1047 32.7168 25.964 32.7168Z" fill="#9E5F14"/>
<path fill-rule="evenodd" clip-rule="evenodd" d="M19.6487 30.4614H15.4032C14.7133 30.4614 14.8725 29.5592 14.8725 28.8693C14.8725 28.1794 15.9339 28.1794 15.9339 28.8693V29.4H19.118C19.118 29.0285 19.0384 28.3387 19.6487 28.3387C20.3386 28.3387 20.1794 29.2408 20.1794 29.9307C20.1794 30.0004 20.1657 30.0694 20.139 30.1338C20.1123 30.1982 20.0733 30.2567 20.024 30.306C19.9747 30.3552 19.9162 30.3943 19.8518 30.421C19.7874 30.4477 19.7184 30.4614 19.6487 30.4614ZM40.1332 43.4367H36.1531C36.0123 43.4367 35.8773 43.3808 35.7778 43.2812C35.6783 43.1817 35.6224 43.0467 35.6224 42.906V21.0682C35.6224 20.9275 35.6783 20.7925 35.7778 20.693C35.8773 20.5935 36.0123 20.5376 36.1531 20.5376H40.1332C40.274 20.5376 40.4089 20.5935 40.5085 20.693C40.608 20.7925 40.6639 20.9275 40.6639 21.0682V42.906C40.6639 43.0467 40.608 43.1817 40.5085 43.2812C40.4089 43.3808 40.274 43.4367 40.1332 43.4367ZM36.6838 42.3753H39.6025V21.5989H36.6838V42.3753ZM9.11459 43.4367H5.13445C4.9937 43.4367 4.85872 43.3808 4.75919 43.2812C4.65967 43.1817 4.60376 43.0467 4.60376 42.906V21.0682C4.60376 20.9275 4.65967 20.7925 4.75919 20.693C4.85872 20.5935 4.9937 20.5376 5.13445 20.5376H9.11459C9.25534 20.5376 9.39032 20.5935 9.48985 20.693C9.58937 20.7925 9.64528 20.9275 9.64528 21.0682V42.906C9.64528 43.0467 9.58937 43.1817 9.48985 43.2812C9.39032 43.3808 9.25534 43.4367 9.11459 43.4367ZM5.66513 42.3753H8.58391V21.5989H5.66513V42.3753ZM24.08 12.3385H6.93878C6.79803 12.3385 6.66305 12.2825 6.56353 12.183C6.46401 12.0835 6.40809 11.9485 6.40809 11.8078V2.22888C6.40809 0.98177 7.4164 0 8.63698 0H22.3287C23.6023 0 24.6106 1.0083 24.6106 2.25542V11.8078C24.6106 11.8775 24.5969 11.9465 24.5702 12.0109C24.5436 12.0752 24.5045 12.1337 24.4552 12.183C24.4059 12.2323 24.3474 12.2714 24.283 12.2981C24.2187 12.3247 24.1496 12.3385 24.08 12.3385ZM7.46947 11.2771H23.5493V2.25542C23.5493 2.09635 23.5176 1.93889 23.4559 1.79226C23.3942 1.64564 23.3039 1.51281 23.1902 1.40158C23.0765 1.29035 22.9417 1.20296 22.7938 1.14453C22.6458 1.08611 22.4877 1.05784 22.3287 1.06137H8.63698C8.48492 1.05784 8.3337 1.08473 8.19219 1.14049C8.05068 1.19624 7.92175 1.27973 7.81298 1.38603C7.7042 1.49233 7.61778 1.61931 7.55879 1.7595C7.49979 1.89969 7.46943 2.05025 7.46947 2.20235V11.2771Z" fill="#9E5F14"/>
<path fill-rule="evenodd" clip-rule="evenodd" d="M24.1064 16.4248H6.91221C6.23416 16.4249 5.58348 16.1573 5.10155 15.6804C4.61962 15.2034 4.34537 14.5555 4.33838 13.8775V11.8078C4.33838 11.6671 4.39429 11.5321 4.49381 11.4326C4.59334 11.3331 4.72832 11.2772 4.86907 11.2772H26.1496C26.2903 11.2772 26.4253 11.3331 26.5248 11.4326C26.6244 11.5321 26.6803 11.6671 26.6803 11.8078V13.851C26.6733 14.529 26.399 15.1769 25.9171 15.6538C25.4352 16.1308 24.7845 16.4249 24.1064 16.4248ZM5.39975 12.3651V13.8775C5.39975 14.7001 6.08964 15.3634 6.91221 15.3634H24.1064C24.503 15.3635 24.8838 15.2078 25.1666 14.9299C25.4495 14.652 25.6119 14.274 25.6189 13.8775V12.3385L5.39975 12.3651ZM38.037 16.4248H30.9523C30.8826 16.4248 30.8136 16.4111 30.7492 16.3844C30.6848 16.3578 30.6263 16.3187 30.577 16.2694C30.5278 16.2201 30.4887 16.1616 30.462 16.0972C30.4353 16.0328 30.4216 15.9638 30.4216 15.8941V8.46452C30.4216 8.32378 30.4775 8.1888 30.577 8.08927C30.6766 7.98975 30.8116 7.93384 30.9523 7.93384H38.037C38.1777 7.93384 38.3127 7.98975 38.4122 8.08927C38.5117 8.1888 38.5676 8.32378 38.5676 8.46452V15.8941C38.5676 15.9638 38.5539 16.0328 38.5273 16.0972C38.5006 16.1616 38.4615 16.2201 38.4122 16.2694C38.3629 16.3187 38.3044 16.3578 38.24 16.3844C38.1757 16.4111 38.1067 16.4248 38.037 16.4248ZM31.483 15.3634H37.5063V8.99521H31.483V15.3634Z" fill="#9E5F14"/>
<path fill-rule="evenodd" clip-rule="evenodd" d="M41.0883 13.8775H38.0368C37.8961 13.8775 37.7611 13.8216 37.6616 13.722C37.5621 13.6225 37.5062 13.4875 37.5062 13.3468V8.46447C37.5062 8.32373 37.5621 8.18875 37.6616 8.08922C37.7611 7.9897 37.8961 7.93379 38.0368 7.93379H41.0883C41.229 7.93379 41.364 7.9897 41.4635 8.08922C41.5631 8.18875 41.619 8.32373 41.619 8.46447V13.3468C41.619 13.4875 41.5631 13.6225 41.4635 13.722C41.364 13.8216 41.229 13.8775 41.0883 13.8775ZM38.5675 12.8161H40.5576V8.99516H38.5675V12.8161ZM18.1626 14.4082H12.8558C12.1394 14.4082 12.1394 13.3468 12.8558 13.3468H18.1626C18.8791 13.3468 18.8791 14.4082 18.1626 14.4082ZM36.1529 29.9307H25.9903C25.2738 29.9307 25.2738 28.8694 25.9903 28.8694H36.1794C36.8693 28.8694 36.8428 29.9307 36.1529 29.9307ZM13.3069 8.88902C13.203 8.88756 13.1018 8.85565 13.0159 8.79725C12.93 8.73884 12.8632 8.6565 12.8236 8.56045C12.784 8.46439 12.7736 8.35884 12.7934 8.25688C12.8133 8.15492 12.8627 8.06103 12.9354 7.98686L17.3135 3.60869C17.8177 3.13108 18.5607 3.87404 18.083 4.37819L13.7049 8.72982C13.6533 8.78257 13.5912 8.82398 13.5227 8.8514C13.4541 8.87881 13.3806 8.89162 13.3069 8.88902ZM15.5888 9.52585C15.4849 9.52439 15.3838 9.49248 15.2979 9.43407C15.212 9.37566 15.1451 9.29333 15.1056 9.19727C15.066 9.10122 15.0555 8.99567 15.0754 8.8937C15.0952 8.79174 15.1446 8.69785 15.2173 8.62368L17.9504 5.89064C18.428 5.35996 19.1975 6.15599 18.6933 6.63361L15.9603 9.36664C15.8623 9.46663 15.7288 9.52385 15.5888 9.52585ZM12.6966 6.63361C12.5927 6.63215 12.4915 6.60024 12.4056 6.54183C12.3197 6.48342 12.2529 6.40109 12.2133 6.30503C12.1738 6.20898 12.1633 6.10342 12.1831 6.00146C12.203 5.8995 12.2524 5.80561 12.3251 5.73144L15.0581 2.9984C15.5623 2.49425 16.3052 3.26375 15.8011 3.74136L13.0681 6.4744C12.9767 6.56822 12.8273 6.62492 12.6966 6.63361Z" fill="#9E5F14"/>
<path fill-rule="evenodd" clip-rule="evenodd" d="M38.037 14.196H30.9523C30.8116 14.196 30.6766 14.1401 30.5771 14.0405C30.4775 13.941 30.4216 13.806 30.4216 13.6653V10.7465C30.4216 10.6058 30.4775 10.4708 30.5771 10.3713C30.6766 10.2717 30.8116 10.2158 30.9523 10.2158H38.037C38.1777 10.2158 38.3127 10.2717 38.4122 10.3713C38.5118 10.4708 38.5677 10.6058 38.5677 10.7465V13.6653C38.5677 13.806 38.5118 13.941 38.4122 14.0405C38.3127 14.1401 38.1777 14.196 38.037 14.196ZM31.483 13.1346H37.5063V11.2772H31.483V13.1346Z" fill="#9E5F14"/>
</svg>
