<svg width="40" height="40" viewBox="0 0 40 40" fill="none" xmlns="http://www.w3.org/2000/svg">
<path d="M39.3333 8H27.3333C27.1565 8 26.987 8.07024 26.8619 8.19526C26.7369 8.32029 26.6667 8.48986 26.6667 8.66667V24H12V22C12 21.8232 11.9298 21.6536 11.8047 21.5286C11.6797 21.4036 11.5101 21.3333 11.3333 21.3333H9.33334V22.6667H10.6667V24H8V21.3333H6.66667V24H4V22.6667H5.33334V21.3333H3.33333C3.15652 21.3333 2.98695 21.4036 2.86193 21.5286C2.73691 21.6536 2.66667 21.8232 2.66667 22V24H0.666667C0.489856 24 0.320287 24.0702 0.195262 24.1953C0.0702379 24.3203 0 24.4899 0 24.6667L0 39.3333C0 39.5102 0.0702379 39.6797 0.195262 39.8048C0.320287 39.9298 0.489856 40 0.666667 40H39.3333C39.5102 40 39.6797 39.9298 39.8048 39.8048C39.9298 39.6797 40 39.5102 40 39.3333V8.66667C40 8.48986 39.9298 8.32029 39.8048 8.19526C39.6797 8.07024 39.5102 8 39.3333 8ZM28 9.33333H38.6667V17.3333H28V9.33333ZM26.6667 28H14.6667V25.3333H26.6667V28ZM1.33333 25.3333H13.3333V28H1.33333V25.3333ZM1.33333 29.3333H13.3333V38.6667H1.33333V29.3333ZM14.6667 29.3333H20V38.6667H14.6667V29.3333ZM21.3333 29.3333H26.6667V38.6667H21.3333V29.3333ZM28 38.6667V18.6667H38.6667V38.6667H28Z" fill="#9E5F14"/>
<path d="M29.3333 12H30.6667V14.6667H29.3333V12ZM29.3333 21.3333H30.6667V24H29.3333V21.3333ZM4 26.6667C4 26.8435 3.92976 27.0131 3.80474 27.1381C3.67971 27.2631 3.51015 27.3333 3.33333 27.3333C3.15652 27.3333 2.98695 27.2631 2.86193 27.1381C2.73691 27.0131 2.66667 26.8435 2.66667 26.6667C2.66667 26.4899 2.73691 26.3203 2.86193 26.1953C2.98695 26.0702 3.15652 26 3.33333 26C3.51015 26 3.67971 26.0702 3.80474 26.1953C3.92976 26.3203 4 26.4899 4 26.6667ZM6.66667 26.6667C6.66667 26.8435 6.59643 27.0131 6.47141 27.1381C6.34638 27.2631 6.17681 27.3333 6 27.3333C5.82319 27.3333 5.65362 27.2631 5.5286 27.1381C5.40357 27.0131 5.33334 26.8435 5.33334 26.6667C5.33334 26.4899 5.40357 26.3203 5.5286 26.1953C5.65362 26.0702 5.82319 26 6 26C6.17681 26 6.34638 26.0702 6.47141 26.1953C6.59643 26.3203 6.66667 26.4899 6.66667 26.6667ZM9.33334 26.6667C9.33334 26.8435 9.2631 27.0131 9.13807 27.1381C9.01305 27.2631 8.84348 27.3333 8.66667 27.3333C8.48986 27.3333 8.32029 27.2631 8.19527 27.1381C8.07024 27.0131 8 26.8435 8 26.6667C8 26.4899 8.07024 26.3203 8.19527 26.1953C8.32029 26.0702 8.48986 26 8.66667 26C8.84348 26 9.01305 26.0702 9.13807 26.1953C9.2631 26.3203 9.33334 26.4899 9.33334 26.6667ZM12 26.6667C12 26.8435 11.9298 27.0131 11.8047 27.1381C11.6797 27.2631 11.5101 27.3333 11.3333 27.3333C11.1565 27.3333 10.987 27.2631 10.8619 27.1381C10.7369 27.0131 10.6667 26.8435 10.6667 26.6667C10.6667 26.4899 10.7369 26.3203 10.8619 26.1953C10.987 26.0702 11.1565 26 11.3333 26C11.5101 26 11.6797 26.0702 11.8047 26.1953C11.9298 26.3203 12 26.4899 12 26.6667ZM0.666667 12.6667H14C14.1768 12.6667 14.3464 12.5964 14.4714 12.4714C14.5964 12.3464 14.6667 12.1768 14.6667 12V10C14.6666 9.82321 14.5964 9.65367 14.4713 9.52867L11.8047 6.862C11.6797 6.73698 11.5101 6.66672 11.3333 6.66667H10.6667V0.666667C10.6667 0.489856 10.5964 0.320287 10.4714 0.195262C10.3464 0.0702379 10.1768 0 10 0L4.66667 0C4.48986 0 4.32029 0.0702379 4.19526 0.195262C4.07024 0.320287 4 0.489856 4 0.666667V6.66667H3.33333C3.15654 6.66672 2.987 6.73698 2.862 6.862L0.195333 9.52867C0.0703082 9.65367 4.69097e-05 9.82321 0 10L0 12C0 12.1768 0.0702379 12.3464 0.195262 12.4714C0.320287 12.5964 0.489856 12.6667 0.666667 12.6667ZM5.33334 1.33333H9.33334V6.66667H5.33334V1.33333ZM1.33333 10.2761L3.60942 8H11.0573L13.3333 10.2761V11.3333H1.33333V10.2761ZM11.3333 30.6667H3.33333C3.15652 30.6667 2.98695 30.7369 2.86193 30.8619C2.73691 30.987 2.66667 31.1565 2.66667 31.3333V36.6667C2.66667 36.8435 2.73691 37.0131 2.86193 37.1381C2.98695 37.2631 3.15652 37.3334 3.33333 37.3334H11.3333C11.5101 37.3334 11.6797 37.2631 11.8047 37.1381C11.9298 37.0131 12 36.8435 12 36.6667V31.3333C12 31.1565 11.9298 30.987 11.8047 30.8619C11.6797 30.7369 11.5101 30.6667 11.3333 30.6667ZM10.6667 36H4V32H10.6667V36ZM19.3333 26H22V27.3333H19.3333V26ZM17.3333 32.6667H18.6667V35.3334H17.3333V32.6667ZM22.6667 32.6667H24V35.3334H22.6667V32.6667ZM16 16.6667H20C20.1768 16.6667 20.3464 16.5964 20.4714 16.4714C20.5964 16.3464 20.6667 16.1768 20.6667 16V15.3333C20.6621 14.1211 19.8405 13.0644 18.6667 12.7614V0H17.3333V12.7614C16.1595 13.0644 15.3379 14.1211 15.3333 15.3333V16C15.3333 16.1768 15.4036 16.3464 15.5286 16.4714C15.6536 16.5964 15.8232 16.6667 16 16.6667ZM18 14C18.7363 14 19.3333 14.597 19.3333 15.3333H16.6667C16.6667 14.597 17.2637 14 18 14Z" fill="#9E5F14"/>
<path d="M20.6667 11.3333H24.6667C24.8435 11.3333 25.013 11.2631 25.1381 11.1381C25.2631 11.0131 25.3333 10.8435 25.3333 10.6667V10C25.3288 8.78775 24.5072 7.73109 23.3333 7.42809V0H22V7.42809C20.8262 7.73109 20.0046 8.78775 20 10V10.6667C20 10.8435 20.0702 11.0131 20.1953 11.1381C20.3203 11.2631 20.4899 11.3333 20.6667 11.3333ZM22.6667 8.66667C23.403 8.66667 24 9.26367 24 10H21.3333C21.3333 9.26367 21.9303 8.66667 22.6667 8.66667Z" fill="#9E5F14"/>
</svg>
