<svg width="48" height="48" viewBox="0 0 48 48" fill="none" xmlns="http://www.w3.org/2000/svg">
<path d="M47.831 15.4645C47.7277 15.3636 47.5869 15.2995 47.4366 15.2995L41.0329 15.3179V5.35267L42.723 6.40691L43.3239 5.48101L34.7136 0.0905521C34.5258 -0.0286067 34.2911 -0.0286067 34.1033 0.0813644L25.3897 5.48101L25.9906 6.4161L27.7747 5.30682V15.3453L6.64793 15.3912V8.4238C6.64793 8.26798 6.57284 8.12126 6.46011 8.02038C4.87322 6.62694 2.4319 6.7461 0.995289 8.29545C0.356825 8.99221 0 9.89064 0 10.8257C0 10.8257 -4.07798e-08 44.7639 0.00941031 44.7913C0.300459 46.634 1.9249 47.9908 3.83097 48L47.4366 47.9359C47.7465 47.9359 48 47.6884 48 47.3858V15.8495C48 15.7028 47.9437 15.5653 47.831 15.4645ZM36.5165 15.2995H32.2911V9.54226H36.5165V15.2995ZM28.9015 4.61015L34.4039 1.19983L39.9062 4.64681V15.2995H37.6433V8.99221C37.6433 8.68968 37.3898 8.44217 37.08 8.44217H31.7279C31.418 8.44217 31.1645 8.68968 31.1645 8.99221V15.2995H28.9016V4.61015H28.9015ZM1.12684 10.8257C1.13625 9.3406 2.36632 8.13963 3.88744 8.14882C4.47894 8.14882 5.05173 8.34129 5.52128 8.68058V40.8219C4.80383 40.4821 3.99621 40.3675 3.20937 40.4939C2.42254 40.6203 1.69508 40.9814 1.12694 41.5277L1.12684 10.8257ZM9.90613 46.8906V43.0678H39.8028V46.8356H38.3381V45.3597H37.2113V46.8356H35.7277V44.7087H34.601V46.8448H32.9015V45.3597H31.7747V46.8448H29.8029V45.3597H28.6761V46.854H27.2395V44.7087H26.1128V46.8631H24.4132V45.3596H23.2865V46.8631H21.3146V45.3596H20.1879V46.8722H18.7137V44.7086H17.587V46.8722H15.8875V45.3596H14.7607V46.8814H12.7889V45.3596H11.6621V46.8905H9.90613V46.8906ZM40.9297 46.8265V42.5178C40.9297 42.2152 40.6762 41.9677 40.3663 41.9677H9.34285C9.03298 41.9677 8.77948 42.2152 8.77948 42.5178V46.8906H3.83107C2.49778 46.8906 1.35221 45.9464 1.12684 44.6629C1.12684 44.6629 1.0048 44.0029 1.28643 43.2236C1.32398 43.1319 2.07517 40.95 4.90145 41.7568C5.1925 41.8759 5.46482 42.0501 5.6996 42.261C5.7813 42.3322 5.88192 42.3794 5.98988 42.3972C6.09785 42.4151 6.20878 42.4028 6.30993 42.3618C6.51648 42.2702 6.64793 42.0777 6.64793 41.8576V16.4912L46.8733 16.3995V22.6701C46.723 22.3859 46.507 22.1383 46.2629 21.9366L45.8216 21.5608C44.8357 20.7449 43.4272 20.7815 42.6855 21.6341L39.6619 25.1178V18.2054C39.6619 17.9029 39.4084 17.6554 39.0986 17.6554H10.8921C10.5822 17.6554 10.3287 17.9029 10.3287 18.2054V40.0424C10.3287 40.345 10.5822 40.5925 10.8921 40.5925H39.0987C39.4085 40.5925 39.662 40.345 39.662 40.0424V33.0843C39.662 33.0843 46.8264 24.8244 46.8734 24.7419V46.8172L40.9297 46.8265ZM22.4132 32.3418V39.4925H11.4555V32.8919H18.263V37.3198H19.3897V32.3418C19.3897 32.0393 19.1362 31.7918 18.8264 31.7918H11.4555V25.9246H19.1644V24.8245H11.4555V18.7556H18.601V22.5877H19.7277V18.7556H38.5352V26.4105L37.7746 27.2815H30.1222V21.1759H28.9954V27.2815H22.9766V28.3816H36.8169L32.2536 33.6347C32.2536 33.6347 32.1879 33.708 32.1785 33.7355C32.1597 33.7814 32.1316 33.8547 32.1316 33.8731L31.5024 37.7235C31.4554 38.026 31.6714 38.301 31.9719 38.3468C32 38.3468 32.2442 38.3284 32.2442 38.3284L36.0282 37.1C36.0282 37.1 36.1033 37.0725 36.1691 37.0358C36.2073 37.0096 36.242 36.9788 36.2724 36.9441L38.5259 34.3497V39.4652H23.54V32.3145L22.4132 32.3418ZM42.1503 23.9444L42.8733 24.5402L34.1972 34.5328L33.4743 33.9277L42.1503 23.9444ZM34.723 36.4031L32.7606 37.0356L33.0799 35.0463L34.723 36.4031ZM35.7841 35.8438L35.0611 35.2388L43.7372 25.2554L44.4602 25.8513L35.7841 35.8438ZM45.1925 25.0078L43.709 23.7885L42.8827 23.101L43.54 22.3401C43.878 21.955 44.5728 21.9734 45.0892 22.4042L45.54 22.7709C45.7841 22.9725 45.9532 23.2568 46.0188 23.5684C46.0658 23.8067 46.0094 24.0634 45.8498 24.256L45.1925 25.0078Z" fill="#9E5F14"/>
</svg>
