<svg width="55" height="47" viewBox="0 0 55 47" fill="none" xmlns="http://www.w3.org/2000/svg">
<path d="M38.9957 1.6114H38.19V0.805698C38.19 0.360738 37.8294 0 37.3843 0C36.9393 0 36.5786 0.360738 36.5786 0.805698V1.6114H35.7729C35.5593 1.6114 35.3543 1.69628 35.2032 1.84738C35.0521 1.99848 34.9673 2.20341 34.9673 2.41709C34.9673 2.63078 35.0521 2.83571 35.2032 2.98681C35.3543 3.13791 35.5593 3.22279 35.7729 3.22279H36.5786V4.02849C36.5786 4.47345 36.9393 4.83419 37.3843 4.83419C37.8294 4.83419 38.19 4.47345 38.19 4.02849V3.22279H38.9957C39.2094 3.22279 39.4144 3.13791 39.5655 2.98681C39.7166 2.83571 39.8014 2.63078 39.8014 2.41709C39.8014 2.20341 39.7166 1.99848 39.5655 1.84738C39.4144 1.69628 39.2094 1.6114 38.9957 1.6114ZM52.3973 25.5704H51.5916V24.7647C51.5916 24.3197 51.231 23.959 50.7859 23.959C50.3408 23.959 49.9802 24.3197 49.9802 24.7647V25.5704H49.1745C48.9608 25.5704 48.7559 25.6553 48.6048 25.8064C48.4537 25.9575 48.3688 26.1624 48.3688 26.3761C48.3688 26.5898 48.4537 26.7947 48.6048 26.9458C48.7559 27.0969 48.9608 27.1818 49.1745 27.1818H49.9802V27.9875C49.9802 28.4324 50.3408 28.7932 50.7859 28.7932C51.231 28.7932 51.5916 28.4324 51.5916 27.9875V27.1818H52.3973C52.611 27.1818 52.8159 27.0969 52.967 26.9458C53.1181 26.7947 53.203 26.5898 53.203 26.3761C53.203 26.1624 53.1181 25.9575 52.967 25.8064C52.8159 25.6553 52.611 25.5704 52.3973 25.5704ZM6.57585 15.0233H5.77016V14.2176C5.77016 14.0039 5.68527 13.7989 5.53417 13.6478C5.38307 13.4967 5.17814 13.4119 4.96446 13.4119C4.75077 13.4119 4.54584 13.4967 4.39474 13.6478C4.24365 13.7989 4.15876 14.0039 4.15876 14.2176V15.0233H3.35306C3.13938 15.0233 2.93444 15.1081 2.78335 15.2592C2.63225 15.4103 2.54736 15.6153 2.54736 15.829C2.54736 16.0426 2.63225 16.2476 2.78335 16.3987C2.93444 16.5498 3.13938 16.6347 3.35306 16.6347H4.15876V17.4404C4.15876 17.654 4.24365 17.859 4.39474 18.0101C4.54584 18.1612 4.75077 18.2461 4.96446 18.2461C5.17814 18.2461 5.38307 18.1612 5.53417 18.0101C5.68527 17.859 5.77016 17.654 5.77016 17.4404V16.6347H6.57585C6.78954 16.6347 6.99447 16.5498 7.14557 16.3987C7.29667 16.2476 7.38155 16.0426 7.38155 15.829C7.38155 15.6153 7.29667 15.4103 7.14557 15.2592C6.99447 15.1081 6.78954 15.0233 6.57585 15.0233ZM14.8248 26.4919H14.3414V26.0085C14.3414 25.7948 14.2565 25.5899 14.1054 25.4388C13.9543 25.2877 13.7494 25.2028 13.5357 25.2028C13.322 25.2028 13.1171 25.2877 12.966 25.4388C12.8149 25.5899 12.73 25.7948 12.73 26.0085V26.4919H12.2466C12.0329 26.4919 11.828 26.5768 11.6769 26.7279C11.5258 26.879 11.4409 27.0839 11.4409 27.2976C11.4409 27.5113 11.5258 27.7162 11.6769 27.8673C11.828 28.0184 12.0329 28.1033 12.2466 28.1033H12.73V28.5867C12.73 28.8004 12.8149 29.0053 12.966 29.1564C13.1171 29.3075 13.322 29.3924 13.5357 29.3924C13.7494 29.3924 13.9543 29.3075 14.1054 29.1564C14.2565 29.0053 14.3414 28.8004 14.3414 28.5867V28.1033H14.8248C15.0385 28.1033 15.2434 28.0184 15.3945 27.8673C15.5456 27.7162 15.6305 27.5113 15.6305 27.2976C15.6305 27.0839 15.5456 26.879 15.3945 26.7279C15.2434 26.5768 15.0385 26.4919 14.8248 26.4919ZM30.0794 26.4919H29.5959V26.0085C29.5959 25.5635 29.2353 25.2028 28.7902 25.2028C28.3452 25.2028 27.9845 25.5635 27.9845 26.0085V26.4919H27.5011C27.2874 26.4919 27.0825 26.5768 26.9314 26.7279C26.7803 26.879 26.6954 27.0839 26.6954 27.2976C26.6954 27.5113 26.7803 27.7162 26.9314 27.8673C27.0825 28.0184 27.2874 28.1033 27.5011 28.1033H27.9845V28.5867C27.9845 29.0317 28.3452 29.3924 28.7902 29.3924C29.2353 29.3924 29.5959 29.0317 29.5959 28.5867V28.1033H30.0794C30.293 28.1033 30.498 28.0184 30.6491 27.8673C30.8002 27.7162 30.885 27.5113 30.885 27.2976C30.885 27.0839 30.8002 26.879 30.6491 26.7279C30.498 26.5768 30.293 26.4919 30.0794 26.4919ZM22.4521 26.4919H21.9687V26.0085C21.9687 25.7948 21.8838 25.5899 21.7327 25.4388C21.5816 25.2877 21.3766 25.2028 21.163 25.2028C20.9493 25.2028 20.7443 25.2877 20.5932 25.4388C20.4422 25.5899 20.3573 25.7948 20.3573 26.0085V26.4919H19.8738C19.6602 26.4919 19.4552 26.5768 19.3041 26.7279C19.153 26.879 19.0681 27.0839 19.0681 27.2976C19.0681 27.5113 19.153 27.7162 19.3041 27.8673C19.4552 28.0184 19.6602 28.1033 19.8738 28.1033H20.3573V28.5867C20.3573 28.8004 20.4422 29.0053 20.5932 29.1564C20.7443 29.3075 20.9493 29.3924 21.163 29.3924C21.3766 29.3924 21.5816 29.3075 21.7327 29.1564C21.8838 29.0053 21.9687 28.8004 21.9687 28.5867V28.1033H22.4521C22.6658 28.1033 22.8707 28.0184 23.0218 27.8673C23.1729 27.7162 23.2578 27.5113 23.2578 27.2976C23.2578 27.0839 23.1729 26.879 23.0218 26.7279C22.8707 26.5768 22.6658 26.4919 22.4521 26.4919ZM30.1868 3.75992H17.224C17.0103 3.75992 16.8053 3.84481 16.6542 3.99591C16.5031 4.14701 16.4183 4.35194 16.4183 4.56562C16.4183 4.77931 16.5031 4.98424 16.6542 5.13534C16.8053 5.28643 17.0103 5.37132 17.224 5.37132H29.3811V13.6432H12.73V5.37132H13.7505C13.9642 5.37132 14.1692 5.28643 14.3203 5.13534C14.4714 4.98424 14.5562 4.77931 14.5562 4.56562C14.5562 4.35194 14.4714 4.14701 14.3203 3.99591C14.1692 3.84481 13.9642 3.75992 13.7505 3.75992H11.9243C11.7106 3.75992 11.5057 3.84481 11.3546 3.99591C11.2035 4.14701 11.1186 4.35194 11.1186 4.56562V14.4489C11.1186 14.6625 11.2035 14.8675 11.3546 15.0186C11.5057 15.1697 11.7106 15.2545 11.9243 15.2545H30.1868C30.4005 15.2545 30.6054 15.1697 30.7565 15.0186C30.9076 14.8675 30.9925 14.6625 30.9925 14.4489V4.56562C30.9925 4.35194 30.9076 4.14701 30.7565 3.99591C30.6054 3.84481 30.4005 3.75992 30.1868 3.75992Z" fill="#9E5F14"/>
<path d="M54.1966 41.2517H51.1168V39.9089C51.1168 38.8723 50.2734 38.0289 49.2369 38.0289H47.0672V18.7996H51.4917C51.611 18.7996 51.7287 18.7731 51.8364 18.7221C51.9442 18.6711 52.0393 18.5968 52.1149 18.5046C52.1904 18.4124 52.2446 18.3045 52.2735 18.1889C52.3024 18.0732 52.3052 17.9525 52.2819 17.8356L50.1316 7.093C50.0951 6.91039 49.9964 6.74608 49.8523 6.62802C49.7083 6.50996 49.5278 6.44544 49.3416 6.44543H42.8993C42.7131 6.44544 42.5326 6.50996 42.3886 6.62802C42.2446 6.74608 42.1459 6.91039 42.1093 7.093L39.9591 17.8356C39.9357 17.9525 39.9386 18.0732 39.9674 18.1889C39.9963 18.3045 40.0505 18.4124 40.1261 18.5046C40.2016 18.5968 40.2967 18.6711 40.4045 18.7221C40.5122 18.7731 40.63 18.7996 40.7492 18.7996H45.4559V38.0289H43.2211C42.1845 38.0289 41.3411 38.8723 41.3411 39.9089V41.2517H36.4713V39.6403H37.9215C38.6027 39.6403 39.1569 39.0861 39.1569 38.4049V29.1662C39.1569 28.485 38.6027 27.9308 37.9215 27.9308H36.6861V23.4963C36.6861 21.6766 35.2057 20.1961 33.386 20.1961H8.94003C7.12033 20.1961 5.63989 21.6766 5.63989 23.4963V23.9739C5.63989 24.1876 5.72477 24.3925 5.87587 24.5436C6.02697 24.6947 6.2319 24.7796 6.44558 24.7796C6.65927 24.7796 6.8642 24.6947 7.0153 24.5436C7.1664 24.3925 7.25128 24.1876 7.25128 23.9739V23.4963C7.25128 22.5651 8.00885 21.8075 8.94003 21.8075H33.386C34.3172 21.8075 35.0747 22.5651 35.0747 23.4963V27.9308H34.4839C33.8027 27.9308 33.2485 28.485 33.2485 29.1662V33.0873H30.9388C30.7251 33.0873 30.5202 33.1722 30.3691 33.3233C30.218 33.4744 30.1331 33.6793 30.1331 33.893C30.1331 34.1067 30.218 34.3116 30.3691 34.4627C30.5202 34.6138 30.7251 34.6987 30.9388 34.6987H33.2485V38.0289H9.07753V34.6987H27.5012C27.7148 34.6987 27.9198 34.6138 28.0709 34.4627C28.222 34.3116 28.3069 34.1067 28.3069 33.893C28.3069 33.6793 28.222 33.4744 28.0709 33.3233C27.9198 33.1722 27.7148 33.0873 27.5012 33.0873H9.07753V29.1662C9.07753 28.485 8.52332 27.9308 7.84213 27.9308H7.25128V27.4474C7.25128 27.2337 7.1664 27.0288 7.0153 26.8777C6.8642 26.7266 6.65927 26.6417 6.44558 26.6417C6.2319 26.6417 6.02697 26.7266 5.87587 26.8777C5.72477 27.0288 5.63989 27.2337 5.63989 27.4474V27.9308H4.40448C3.72329 27.9308 3.16908 28.485 3.16908 29.1662V38.4049C3.16908 39.0861 3.72329 39.6403 4.40448 39.6403H5.85474V41.2517H0.805698C0.592014 41.2517 0.387081 41.3366 0.235984 41.4877C0.0848858 41.6388 0 41.8437 0 42.0574L0 45.2802C0 45.4939 0.0848858 45.6988 0.235984 45.8499C0.387081 46.001 0.592014 46.0859 0.805698 46.0859H54.1966C54.4103 46.0859 54.6152 46.001 54.7663 45.8499C54.9174 45.6988 55.0023 45.4939 55.0023 45.2802V42.0574C55.0023 41.8437 54.9174 41.6388 54.7663 41.4877C54.6152 41.3366 54.4103 41.2517 54.1966 41.2517ZM41.732 17.1882L43.5596 8.05694H48.681L50.5087 17.1882H41.732ZM42.9524 39.9089C42.9524 39.7608 43.0728 39.6403 43.221 39.6403H49.2369C49.385 39.6403 49.5054 39.7608 49.5054 39.9089V41.2517H42.9524V39.9089ZM34.8599 29.5422H37.5455V38.0289H34.8599V29.5422ZM34.8599 39.6403V41.2517H7.46614V39.6403H34.8599ZM4.78048 38.0289V29.5422H7.46614V38.0289H4.78048ZM53.3909 44.4745H1.6114V42.8631H53.3909V44.4745Z" fill="#9E5F14"/>
</svg>
