<svg width="17" height="16" viewBox="0 0 17 16" fill="none" xmlns="http://www.w3.org/2000/svg">
<path d="M12.6962 9.91143C12.3682 9.57036 11.9725 9.38801 11.5532 9.38801C11.1372 9.38801 10.7382 9.56699 10.3966 9.90805L9.32793 10.9718C9.24 10.9245 9.15208 10.8806 9.06753 10.8367C8.94579 10.7759 8.8308 10.7185 8.73273 10.6577C7.73171 10.0229 6.822 9.19553 5.94949 8.12504C5.52676 7.59149 5.24269 7.14236 5.0364 6.68648C5.31371 6.43321 5.57072 6.16981 5.82098 5.91654C5.91567 5.82199 6.01036 5.72406 6.10505 5.62951C6.81524 4.92036 6.81524 4.00184 6.10505 3.29268L5.18181 2.37079C5.07698 2.2661 4.96876 2.15804 4.8673 2.04998C4.6644 1.84061 4.45134 1.62449 4.23152 1.42188C3.90348 1.09769 3.51119 0.92547 3.09861 0.92547C2.68603 0.92547 2.28697 1.09769 1.94879 1.42188L1.94203 1.42863L0.792205 2.58691C0.359332 3.01915 0.112459 3.54595 0.0583493 4.15717C-0.0228145 5.14323 0.268022 6.06175 0.491223 6.66284C1.03908 8.13855 1.85748 9.5062 3.07832 10.9718C4.55956 12.7379 6.34178 14.1326 8.37764 15.1152C9.15546 15.4833 10.1937 15.919 11.3536 15.9932C11.4247 15.9966 11.4991 16 11.5667 16C12.3479 16 13.004 15.7197 13.518 15.1625C13.5214 15.1558 13.5282 15.1524 13.5315 15.1456C13.7074 14.9329 13.9103 14.7404 14.1234 14.5344C14.2688 14.396 14.4176 14.2508 14.563 14.0988C14.8978 13.751 15.0737 13.3457 15.0737 12.9304C15.0737 12.5117 14.8944 12.1098 14.5529 11.7721L12.6962 9.91143ZM13.9069 13.4673C13.9035 13.4673 13.9035 13.4707 13.9069 13.4673C13.775 13.6091 13.6398 13.7375 13.4943 13.8793C13.2745 14.0887 13.0513 14.3082 12.8416 14.5547C12.5001 14.9194 12.0976 15.0916 11.5701 15.0916C11.5194 15.0916 11.4652 15.0916 11.4145 15.0882C10.4101 15.0241 9.47673 14.6324 8.7767 14.298C6.86258 13.3728 5.18181 12.0591 3.78512 10.3943C2.63192 9.00642 1.86086 7.72319 1.35021 6.34541C1.0357 5.50456 0.920715 4.84944 0.971442 4.23147C1.00526 3.83637 1.15744 3.50881 1.43813 3.22852L2.59134 2.077C2.75705 1.92166 2.9329 1.83724 3.10537 1.83724C3.31843 1.83724 3.4909 1.96556 3.59912 2.07362L3.60927 2.08375C3.81556 2.27623 4.0117 2.47547 4.21799 2.68822C4.32283 2.79628 4.43105 2.90434 4.53927 3.01578L5.46251 3.93767C5.82098 4.29563 5.82098 4.62656 5.46251 4.98452C5.36443 5.08245 5.26974 5.18038 5.17167 5.27493C4.8876 5.56535 4.61705 5.8355 4.32283 6.0989C4.31607 6.10565 4.3093 6.10903 4.30592 6.11578C4.01508 6.4062 4.06919 6.68986 4.13007 6.88234L4.14021 6.91273C4.38032 7.49356 4.7185 8.04062 5.23254 8.69236L5.23592 8.69574C6.16931 9.84389 7.15342 10.7388 8.23899 11.4243C8.37764 11.5121 8.51968 11.583 8.65495 11.6505C8.77669 11.7113 8.89168 11.7687 8.98975 11.8295C9.00328 11.8363 9.0168 11.8464 9.03033 11.8532C9.14531 11.9106 9.25353 11.9376 9.36513 11.9376C9.64582 11.9376 9.82168 11.762 9.87917 11.7046L11.0358 10.5497C11.1507 10.4349 11.3334 10.2964 11.5464 10.2964C11.7561 10.2964 11.9286 10.4281 12.0334 10.5429L12.0402 10.5497L13.9035 12.4103C14.2519 12.7548 14.2519 13.1094 13.9069 13.4673ZM8.69215 3.80597C9.57819 3.95456 10.3831 4.3733 11.0256 5.01491C11.6682 5.65652 12.0841 6.46023 12.2363 7.34498C12.2735 7.56785 12.4663 7.72319 12.6861 7.72319C12.7131 7.72319 12.7368 7.71981 12.7639 7.71644C13.0141 7.67591 13.1798 7.43953 13.1392 7.18964C12.9566 6.11916 12.4494 5.14323 11.6749 4.36992C10.9005 3.59661 9.92313 3.09007 8.8511 2.90772C8.60084 2.86719 8.36749 3.03266 8.32353 3.27918C8.27957 3.52569 8.44189 3.76545 8.69215 3.80597ZM16.0375 7.05794C15.7365 5.29519 14.9046 3.69116 13.6262 2.41469C12.3479 1.13822 10.7415 0.307495 8.97622 0.00695018C8.72935 -0.0369497 8.496 0.131896 8.45204 0.37841C8.41146 0.628302 8.57717 0.861309 8.82742 0.905208C10.4034 1.17198 11.8406 1.91828 12.9837 3.0563C14.1267 4.1977 14.8707 5.63288 15.1379 7.20652C15.1751 7.4294 15.3679 7.58474 15.5877 7.58474C15.6147 7.58474 15.6384 7.58136 15.6655 7.57798C15.9123 7.54084 16.0814 7.30445 16.0375 7.05794Z" fill="#FBF9F9"/>
</svg>
