<svg width="61" height="42" viewBox="0 0 61 42" fill="none" xmlns="http://www.w3.org/2000/svg">
<path d="M60.1837 25.5171L57.1294 20.844C55.7807 18.779 53.4893 17.5459 50.9985 17.5459H43.0997V13.0005C43.0997 10.2251 40.8427 7.96828 38.0675 7.96828H23.2807C22.451 3.63503 18.6367 0.347412 14.0649 0.347412C8.88819 0.347412 4.67699 4.55917 4.67699 9.73534C4.67699 12.9903 6.3436 15.8613 8.86672 17.546H0.958239C0.428752 17.546 0.000140463 17.9747 0.000140463 18.504C0.000140463 19.0333 0.428752 19.462 0.958098 19.462H10.5357V21.3774H6.70416C6.57839 21.3774 6.45385 21.4022 6.33765 21.4504C6.22146 21.4985 6.11589 21.5691 6.02698 21.6581C5.93807 21.747 5.86756 21.8526 5.81948 21.9689C5.7714 22.0851 5.74669 22.2096 5.74676 22.3354C5.74669 22.4612 5.7714 22.5857 5.81949 22.7019C5.86758 22.8181 5.9381 22.9236 6.02702 23.0126C6.11593 23.1015 6.2215 23.172 6.33769 23.2201C6.45388 23.2682 6.57841 23.2929 6.70416 23.2928H10.5356V25.2082H0.957958C0.832153 25.2081 0.707571 25.2328 0.59133 25.281C0.47509 25.3291 0.36947 25.3996 0.280506 25.4886C0.191542 25.5775 0.120979 25.6831 0.072848 25.7994C0.0247175 25.9156 -3.67134e-05 26.0402 1.64522e-07 26.166C-7.35931e-05 26.2918 0.0246534 26.4164 0.0727674 26.5327C0.120881 26.6489 0.191439 26.7546 0.280407 26.8436C0.369374 26.9325 0.475007 27.0031 0.591265 27.0513C0.707524 27.0994 0.83213 27.1241 0.957958 27.1241H10.5356V31.3659C8.84708 32.1107 7.66226 33.7953 7.66226 35.7562V36.7015C7.66226 36.9556 7.76317 37.1992 7.94279 37.3789C8.12241 37.5585 8.36604 37.6595 8.62008 37.6595H17.1147C17.6595 40.0029 19.7608 41.7566 22.2679 41.7566C24.7759 41.7566 26.8764 40.0029 27.4212 37.6595H45.848C46.3933 40.0029 48.4944 41.7566 51.0012 41.7566C53.508 41.7566 55.6097 40.0029 56.1545 37.6595H59.3819C59.5077 37.6595 59.6322 37.6348 59.7484 37.5867C59.8646 37.5385 59.9702 37.4679 60.0591 37.379C60.1481 37.29 60.2186 37.1844 60.2666 37.0681C60.3147 36.9519 60.3394 36.8273 60.3393 36.7015V26.0411C60.3393 25.855 60.2852 25.6729 60.1835 25.5171H60.1837ZM6.59248 9.7352C6.59248 5.61506 9.94478 2.26263 14.0649 2.26263C18.1856 2.26263 21.5375 5.61506 21.5375 9.7352C21.5375 13.8553 18.1858 17.2078 14.0649 17.2078C9.94478 17.2078 6.59248 13.8553 6.59248 9.7352ZM12.4509 27.1241H14.3663C14.4921 27.1241 14.6167 27.0994 14.733 27.0513C14.8493 27.0032 14.9549 26.9326 15.0439 26.8436C15.1329 26.7546 15.2035 26.649 15.2516 26.5327C15.2997 26.4164 15.3245 26.2918 15.3244 26.166C15.3244 26.0401 15.2997 25.9155 15.2516 25.7993C15.2034 25.683 15.1329 25.5774 15.0439 25.4884C14.9549 25.3995 14.8492 25.3289 14.733 25.2808C14.6167 25.2327 14.4921 25.2079 14.3663 25.208H12.4509V23.2927H19.1558C19.2815 23.2927 19.406 23.268 19.5222 23.2199C19.6384 23.1718 19.7439 23.1013 19.8328 23.0124C19.9217 22.9234 19.9923 22.8179 20.0403 22.7017C20.0884 22.5855 20.1131 22.461 20.113 22.3353C20.1131 22.2095 20.0884 22.0849 20.0403 21.9687C19.9922 21.8525 19.9217 21.7469 19.8328 21.6579C19.7439 21.569 19.6384 21.4984 19.5222 21.4502C19.406 21.4021 19.2814 21.3773 19.1557 21.3773H12.4509V19.4617H24.9019C25.4308 19.4617 25.8598 19.0332 25.8598 18.5037C25.8598 17.9742 25.4308 17.5458 24.9019 17.5458H19.2631C21.7474 15.8869 23.3953 13.0766 23.4457 9.88364H38.068C39.7861 9.88364 41.184 11.2821 41.184 13.0004V30.9546H12.4631C12.4593 30.9546 12.4554 30.9558 12.4511 30.9558L12.4509 27.1241ZM41.184 35.7436H27.5083C27.3576 34.642 26.8688 33.6489 26.147 32.8703H41.1842L41.184 35.7436ZM12.463 32.8703H18.3889C17.6678 33.6489 17.1783 34.642 17.0282 35.7436H9.57761C9.58407 34.1586 10.8764 32.8703 12.463 32.8703ZM22.268 39.8413C20.4051 39.8413 18.8888 38.3254 18.8888 36.4621C18.8888 34.5993 20.4051 33.0828 22.268 33.0828C24.1313 33.0828 25.6473 34.5993 25.6473 36.4621C25.6473 38.3254 24.1313 39.8413 22.268 39.8413ZM51.0012 39.8413C49.1384 39.8413 47.6221 38.3254 47.6221 36.4621C47.6221 34.5993 49.1384 33.0828 51.0013 33.0828C52.8645 33.0828 54.3804 34.5993 54.3804 36.4621C54.3804 38.3254 52.8645 39.8413 51.0012 39.8413ZM58.4239 35.7436H56.2414C55.889 33.1639 53.6761 31.1675 51.0012 31.1675C48.3261 31.1675 46.1137 33.1639 45.7607 35.7436H43.0994V19.462H50.9985C52.8393 19.462 54.5323 20.37 55.5263 21.8914L58.4239 26.3261V35.7436Z" fill="black"/>
</svg>
