<svg width="30" height="39" viewBox="0 0 30 39" fill="none" xmlns="http://www.w3.org/2000/svg">
<path d="M29.1348 9.83916C29.1334 9.76572 29.1187 9.69313 29.0916 9.62488C29.0842 9.60653 29.0757 9.58862 29.0663 9.57122C29.0574 9.54952 29.0472 9.52833 29.0359 9.50776L23.3357 0.640812C23.3147 0.610882 23.2912 0.582842 23.2654 0.557015C23.2576 0.548331 23.2516 0.538163 23.2432 0.529776C23.1919 0.48115 23.1327 0.441551 23.0682 0.412653C23.0532 0.405721 23.0378 0.399626 23.0221 0.394395C22.9519 0.365418 22.877 0.349496 22.801 0.347412H6.33374C6.25861 0.348878 6.18435 0.363915 6.11456 0.391797C6.09861 0.396992 6.08324 0.403079 6.06818 0.410056C6.00385 0.43904 5.94492 0.478745 5.8939 0.527475C5.88574 0.535862 5.87832 0.54514 5.87126 0.554714C5.8454 0.580448 5.82184 0.608387 5.80083 0.638214L0.100942 9.50546C0.0896603 9.52572 0.0794919 9.54687 0.070511 9.56862C0.0609528 9.58609 0.0524274 9.60411 0.0449786 9.62258C0.0173238 9.69155 0.00209603 9.76488 0 9.83916L0 37.7159C0 38.0655 0.283528 38.3494 0.633486 38.3494H28.5013C28.6693 38.3494 28.8304 38.2827 28.9492 38.1639C29.068 38.0451 29.1348 37.8839 29.1348 37.7159V9.83916ZM27.341 9.21465H23.4344V3.13735L27.341 9.21465ZM22.1678 1.61409V9.21473H6.96708V1.61409H22.1678ZM5.70033 3.13742V9.21465H1.7938L5.70033 3.13742ZM27.8681 37.0825H1.26667V10.4813H27.8682L27.8681 37.0825Z" fill="black"/>
<path d="M19.6343 15.548C19.6342 15.9918 19.7512 16.4278 19.9737 16.8119C20.1961 17.1959 20.516 17.5144 20.9011 17.7351V21.2484C20.8976 24.3953 18.3476 26.9452 15.2008 26.9487H13.934C10.7874 26.9452 8.23717 24.3953 8.23376 21.2484V17.7351C9.45634 17.0418 9.8852 15.4886 9.19196 14.266C8.49843 13.0437 6.94526 12.6145 5.72267 13.3081C4.50024 14.0013 4.07123 15.5548 4.76469 16.7771C4.85059 16.9287 4.95195 17.0711 5.06714 17.2018V21.2484C5.07234 26.1436 9.03914 30.1104 13.934 30.1156H15.2008C20.0959 30.1104 24.0627 26.1432 24.068 21.2484V17.2018C24.985 16.1494 24.8752 14.5528 23.8227 13.6357C22.7702 12.7183 21.1733 12.8282 20.2563 13.8806C19.8536 14.3426 19.6326 14.9352 19.6343 15.548ZM6.96701 14.2814C7.66663 14.2829 8.23257 14.8512 8.23109 15.5508C8.23078 15.8178 8.14595 16.0778 7.98875 16.2936C7.53303 15.5554 6.56517 15.3266 5.82703 15.7824C5.79601 15.8013 5.76587 15.8215 5.73655 15.8428C5.71308 15.7463 5.70092 15.6474 5.70033 15.5481C5.70033 14.8486 6.26739 14.2814 6.96701 14.2814ZM22.8013 21.2485C22.7967 25.4441 19.3963 28.8444 15.2008 28.8487H13.934C9.73846 28.8443 6.33812 25.4441 6.33382 21.2485V17.1318C6.3327 17.0895 6.34006 17.0474 6.35546 17.008C6.37087 16.9686 6.39401 16.9327 6.42352 16.9024C6.45303 16.8721 6.48831 16.848 6.52728 16.8316C6.56625 16.8151 6.60812 16.8067 6.65041 16.8067C6.69271 16.8067 6.73458 16.8151 6.77355 16.8316C6.81252 16.848 6.8478 16.8721 6.87731 16.9024C6.90682 16.9327 6.92996 16.9686 6.94536 17.008C6.96077 17.0474 6.96813 17.0895 6.96701 17.1318V21.2485C6.97168 25.0944 10.0881 28.2108 13.934 28.2155H15.2008C19.0467 28.2108 22.1631 25.0944 22.1678 21.2485V17.1318C22.1678 17.0478 22.2011 16.9672 22.2605 16.9078C22.3199 16.8484 22.4005 16.815 22.4845 16.815C22.5685 16.815 22.6491 16.8484 22.7085 16.9078C22.7679 16.9672 22.8013 17.0478 22.8013 17.1318V21.2485ZM23.4344 15.5482C23.4338 15.6474 23.4218 15.7463 23.3985 15.8428C22.6937 15.3371 21.7123 15.4983 21.2064 16.2031C21.1852 16.2326 21.1652 16.2629 21.146 16.2936C20.7326 15.7293 20.8547 14.9367 21.4189 14.5232C21.9831 14.1095 22.7757 14.2315 23.1895 14.7958C23.3494 15.014 23.4352 15.2777 23.4344 15.5482Z" fill="black"/>
</svg>
