<svg width="55" height="46" viewBox="0 0 55 46" fill="none" xmlns="http://www.w3.org/2000/svg">
<path d="M53.0798 40.905C52.991 40.8566 52.8934 40.8261 52.7928 40.8154C52.6921 40.8047 52.5904 40.8139 52.4933 40.8426C52.3962 40.8712 52.3057 40.9187 52.227 40.9823C52.1483 41.0459 52.0829 41.1245 52.0345 41.2134C51.8968 41.4668 51.6932 41.6783 51.4453 41.8257C51.1974 41.9732 50.9144 42.051 50.6259 42.051C50.3711 42.0506 50.12 41.9895 49.8934 41.8729C49.6668 41.7563 49.4712 41.5875 49.3227 41.3804C49.2287 41.2492 49.1048 41.1423 48.9613 41.0685C48.8178 40.9946 48.6588 40.956 48.4974 40.9558C48.3361 40.956 48.1772 40.9946 48.0337 41.0684C47.8903 41.1422 47.7665 41.2491 47.6725 41.3802C47.524 41.5873 47.3283 41.7562 47.1017 41.8728C46.875 41.9894 46.6239 42.0505 46.369 42.051C46.1141 42.0505 45.863 41.9895 45.6363 41.8729C45.4097 41.7562 45.2141 41.5873 45.0656 41.3802C44.9716 41.2491 44.8477 41.1423 44.7043 41.0685C44.5608 40.9947 44.4019 40.9561 44.2406 40.9559C44.0793 40.9561 43.9203 40.9947 43.7768 41.0685C43.6334 41.1422 43.5095 41.2491 43.4155 41.3802C43.267 41.5873 43.0714 41.7562 42.8447 41.8728C42.6181 41.9894 42.3669 42.0505 42.112 42.051C41.7134 42.0522 41.329 41.9031 41.0355 41.6333L44.2218 38.4471C44.5503 38.1185 44.8048 37.7235 44.9682 37.2886C45.1316 36.8536 45.2002 36.3888 45.1694 35.9252C45.1385 35.4616 45.0089 35.0099 44.7893 34.6005C44.5696 34.191 44.265 33.8332 43.8959 33.5511C43.5431 33.1929 42.9496 33.1122 42.6234 33.5489C42.562 33.6293 42.517 33.721 42.491 33.8188C42.465 33.9167 42.4585 34.0186 42.472 34.1189C42.4854 34.2193 42.5184 34.3159 42.5693 34.4035C42.6201 34.491 42.6876 34.5677 42.7681 34.6291C43.2477 34.945 43.602 35.4421 43.6315 36.0275C43.7145 36.7515 43.2051 37.3379 42.7018 37.7873L33.0503 30.4118L33.867 29.5951C34.4384 29.0238 35.3533 28.9627 35.9954 29.4534L40.0928 32.5845C40.1732 32.6459 40.2649 32.691 40.3627 32.717C40.4605 32.743 40.5625 32.7495 40.6628 32.7361C40.7631 32.7226 40.8598 32.6896 40.9473 32.6388C41.0349 32.588 41.1115 32.5205 41.173 32.4401C41.2344 32.3596 41.2794 32.2679 41.3054 32.1701C41.3314 32.0723 41.3379 31.9703 41.3245 31.87C41.3111 31.7697 41.2781 31.673 41.2273 31.5855C41.1765 31.498 41.109 31.4213 41.0286 31.3599L36.9312 28.2288C35.6782 27.2712 33.8921 27.39 32.777 28.5052L29.8643 31.4179C29.6315 31.6523 29.3225 31.7958 28.9932 31.8225C28.6639 31.8491 28.336 31.7572 28.0685 31.5632L26.0212 30.0892C21.9438 27.1556 18.3688 23.5806 15.4353 19.5032L13.9613 17.4558C13.7674 17.1883 13.6754 16.8603 13.7021 16.531C13.7287 16.2018 13.8722 15.8928 14.1066 15.66L17.0193 12.7473C18.1344 11.632 18.2533 9.84609 17.2957 8.59306L11.9733 1.6283C11.6912 1.25907 11.3334 0.954408 10.924 0.734736C10.5145 0.515064 10.0629 0.385458 9.59923 0.354606C9.13559 0.323755 8.67072 0.392371 8.23577 0.555854C7.80082 0.719337 7.40585 0.97391 7.07732 1.30251L2.24785 6.13198C0.400563 7.97937 -0.375492 10.6074 0.172318 13.162C0.890144 16.5115 2.08868 19.7396 3.73071 22.746C3.77853 22.836 3.84374 22.9157 3.92258 22.9804C4.00141 23.045 4.09229 23.0934 4.18995 23.1227C4.28762 23.152 4.39012 23.1616 4.49153 23.151C4.59294 23.1404 4.69124 23.1098 4.78073 23.0609C4.87022 23.012 4.94912 22.9459 5.01286 22.8663C5.07661 22.7867 5.12392 22.6953 5.15208 22.5973C5.18023 22.4993 5.18865 22.3967 5.17686 22.2954C5.16507 22.1941 5.1333 22.0962 5.08339 22.0073C3.51263 19.1312 2.36605 16.0431 1.67924 12.8388C1.24165 10.7978 1.86157 8.6981 3.33767 7.2219L6.63719 3.92226L14.0127 13.5737L13.0162 14.5702C11.9948 15.5917 11.8659 17.184 12.71 18.3564L14.184 20.4039C17.2146 24.6162 20.908 28.3096 25.1203 31.3402L27.1678 32.8142C27.7318 33.2229 28.4232 33.4167 29.1175 33.3605C29.8117 33.3044 30.463 33.002 30.954 32.5079L31.9505 31.5115L41.6019 38.8869L38.3022 42.1865C36.8262 43.6627 34.7259 44.2821 32.6852 43.8449C28.1342 42.8691 23.903 41.0068 20.1094 38.3095L18.5396 37.1934C14.5805 34.3785 11.1457 30.9437 8.33077 26.9845C8.05016 26.5871 7.10086 25.2628 6.84411 24.8829C6.78702 24.7994 6.71402 24.7279 6.62929 24.6725C6.54456 24.6172 6.44975 24.579 6.35029 24.5603C6.25083 24.5416 6.14865 24.5427 6.0496 24.5635C5.95054 24.5842 5.85655 24.6243 5.77299 24.6814C5.68942 24.7385 5.61792 24.8115 5.56257 24.8962C5.50722 24.981 5.46909 25.0758 5.45038 25.1752C5.43167 25.2747 5.43273 25.3769 5.4535 25.4759C5.47427 25.575 5.51435 25.669 5.57145 25.7525C5.83369 26.1406 6.78911 27.4733 7.07458 27.8776C9.98961 31.9776 13.5465 35.5346 17.6465 38.4495L19.2162 39.5656C23.1818 42.3851 27.6047 44.3319 32.3622 45.3519C32.8946 45.4663 33.4376 45.524 33.9821 45.5242C35.9915 45.5242 37.9348 44.7336 39.3921 43.2763L39.944 42.7244C40.5238 43.2751 41.3014 43.5922 42.1117 43.5922C42.9055 43.5922 43.665 43.2893 44.2402 42.7609C44.8153 43.2893 45.575 43.5922 46.3688 43.5922C47.1625 43.5922 47.9221 43.2893 48.4973 42.7609C49.0724 43.2893 49.8321 43.5922 50.6258 43.5922C51.1914 43.5923 51.7465 43.4398 52.2326 43.1508C52.7187 42.8619 53.1179 42.4471 53.388 41.9502C53.4364 41.8614 53.4669 41.7639 53.4776 41.6632C53.4883 41.5626 53.4791 41.4608 53.4505 41.3638C53.4219 41.2667 53.3744 41.1762 53.3108 41.0975C53.2472 41.0188 53.1687 40.9534 53.0798 40.905ZM7.73693 2.82263L8.16703 2.39253C8.86359 1.66282 10.1542 1.74749 10.7485 2.56419L16.0708 9.52895C16.5614 10.1709 16.5005 11.0859 15.9292 11.6574L15.1125 12.4741L7.73693 2.82263Z" fill="black"/>
<path d="M46.8083 3.62012H33.1925C32.7669 3.62012 32.4219 3.96512 32.4219 4.39079C32.4219 4.81645 32.7669 5.16146 33.1925 5.16146H46.8083C49.953 5.16146 52.5113 7.71988 52.5113 10.8644V17.1069C52.5113 20.2515 49.9528 22.8098 46.8083 22.8098H33.0634C32.7597 22.809 32.4588 22.8684 32.1782 22.9847C31.8975 23.1009 31.6428 23.2716 31.4285 23.487L27.8021 27.1136V24.3963C27.8021 23.5652 27.2308 22.8497 26.4127 22.6567C23.8299 22.0468 22.0261 19.7646 22.0261 17.1069V10.8644C22.0261 7.71977 24.5846 5.16146 27.7291 5.16146H29.5512C29.9768 5.16146 30.3218 4.81645 30.3218 4.39079C30.3218 3.96512 29.9768 3.62012 29.5512 3.62012H27.7291C23.7346 3.62012 20.4848 6.86992 20.4848 10.8644V17.1069C20.4848 20.4827 22.7769 23.3817 26.0585 24.1566C26.1775 24.1848 26.2607 24.2833 26.2607 24.3963V27.9818C26.2607 28.4614 26.5471 28.89 26.9902 29.0736C27.2061 29.1634 27.4438 29.187 27.673 29.1414C27.9023 29.0958 28.1129 28.983 28.278 28.8175L32.5185 24.577C32.5898 24.5052 32.6747 24.4483 32.7683 24.4095C32.8618 24.3707 32.9621 24.3509 33.0633 24.3512H46.8083C50.8028 24.3512 54.0526 21.1014 54.0526 17.1069V10.8644C54.0526 6.86992 50.8028 3.62012 46.8083 3.62012Z" fill="black"/>
<path d="M38.7987 18.1503C38.953 18.1503 39.1038 18.104 39.2315 18.0173C39.3592 17.9307 39.4579 17.8077 39.515 17.6643L42.4117 10.3811C42.4859 10.1915 42.4821 9.98017 42.401 9.79338C42.3198 9.60659 42.1681 9.45949 41.9789 9.38423C41.7897 9.30897 41.5783 9.31165 41.3911 9.3917C41.2039 9.47175 41.0559 9.62266 40.9796 9.81145L38.0828 17.0947C37.8746 17.5868 38.2681 18.16 38.7987 18.1503ZM45.5932 18.2264C45.9736 18.3963 46.4374 18.2246 46.609 17.8311L49.8105 10.5479C50.0419 10.0606 49.6441 9.45134 49.105 9.46707H45.0983C44.6727 9.46707 44.3277 9.81208 44.3277 10.2377C44.3277 10.6634 44.6727 11.0084 45.0983 11.0084H47.9244L45.1978 17.2107C45.1156 17.3979 45.1111 17.61 45.1852 17.8005C45.2594 17.9909 45.4061 18.1442 45.5932 18.2264ZM31.1111 16.0006H33.9774C33.9738 16.4865 33.9702 16.9531 33.9665 17.3728C33.9647 17.5772 34.0443 17.7739 34.1875 17.9196C34.3308 18.0654 34.5261 18.1483 34.7305 18.1501H34.7372C34.9405 18.1501 35.1355 18.0698 35.2798 17.9267C35.4241 17.7836 35.506 17.5893 35.5078 17.3861C35.51 17.1296 35.5142 16.6249 35.5189 16.0006C35.9965 16.0606 36.4598 15.7323 36.4553 15.2299C36.4595 14.7329 36.0038 14.4013 35.5291 14.4592C35.5395 12.6991 35.5451 10.7978 35.5234 10.5373C35.4767 9.97688 35.1415 9.52039 34.6694 9.37417C34.2016 9.22922 33.7028 9.41207 33.3348 9.86349C32.9233 10.3683 31.0123 13.8137 30.4363 14.8577C30.1464 15.3469 30.5426 16.018 31.1111 16.0006ZM33.9972 11.6928C33.9976 12.4102 33.9936 13.4159 33.9875 14.4592H32.4205C33.0118 13.4006 33.5904 12.3835 33.9972 11.6928ZM27.6828 13.4864C26.5285 15.1356 25.8397 16.0376 25.4695 16.5222C25.0117 17.1216 24.8221 17.3698 24.9548 17.8007C25.0323 18.0524 25.2231 18.2455 25.478 18.3303C25.5808 18.3646 25.6859 18.3998 27.0966 18.3998C27.6509 18.3998 28.4068 18.3944 29.4429 18.3813C29.6458 18.3766 29.8387 18.292 29.9796 18.1459C30.1205 17.9998 30.1981 17.8041 30.1956 17.6011C30.193 17.3982 30.1105 17.2044 29.9659 17.062C29.8214 16.9195 29.6265 16.8398 29.4235 16.8402C28.6448 16.8499 27.8165 16.8561 27.1502 16.8569C27.5586 16.3127 28.1412 15.5196 28.9457 14.3702C29.5091 13.5318 29.8379 12.9002 29.8953 12.0655C29.8953 10.6129 28.7135 9.43129 27.261 9.43129C26.0051 9.43129 24.918 10.3246 24.6761 11.5557C24.6565 11.655 24.6568 11.7572 24.6767 11.8564C24.6967 11.9556 24.736 12.0499 24.7924 12.134C24.8489 12.218 24.9213 12.2901 25.0056 12.3461C25.0898 12.4021 25.1843 12.441 25.2836 12.4606C25.3829 12.4801 25.4851 12.4798 25.5843 12.4599C25.6836 12.4399 25.7779 12.4006 25.8619 12.3442C25.9459 12.2878 26.018 12.2153 26.074 12.1311C26.1301 12.0468 26.169 11.9523 26.1885 11.853C26.2888 11.343 26.7397 10.9727 27.2609 10.9727C27.8493 10.9727 28.3306 11.4401 28.353 12.023C28.2953 12.5224 28.0631 12.9177 27.6828 13.4864Z" fill="black"/>
</svg>
