<svg width="37" height="39" viewBox="0 0 37 39" fill="none" xmlns="http://www.w3.org/2000/svg">
<path d="M14.9216 36.1007C14.8014 36.1007 14.6862 36.0529 14.6012 35.968C14.5162 35.883 14.4685 35.7678 14.4685 35.6476V2.42464C14.4685 2.30448 14.5162 2.18923 14.6012 2.10426C14.6862 2.01929 14.8014 1.97156 14.9216 1.97156C15.0418 1.97156 15.157 2.01929 15.242 2.10426C15.3269 2.18923 15.3747 2.30448 15.3747 2.42464V35.6476C15.3747 35.7678 15.3269 35.883 15.242 35.968C15.157 36.0529 15.0418 36.1007 14.9216 36.1007Z" fill="#9E5F14"/>
<path d="M34.5251 38.064H1.96337C1.44285 38.0634 0.943829 37.8563 0.575764 37.4883C0.207699 37.1202 0.000639463 36.6212 0 36.1007V1.96337C0.000639463 1.44285 0.207699 0.943829 0.575764 0.575764C0.943829 0.207699 1.44285 0.000639463 1.96337 0H34.5251C35.0456 0.000639463 35.5447 0.207699 35.9127 0.575764C36.2808 0.943829 36.4879 1.44285 36.4885 1.96337V36.1007C36.4879 36.6212 36.2808 37.1202 35.9127 37.4883C35.5447 37.8563 35.0456 38.0634 34.5251 38.064ZM1.96337 0.906171C1.68311 0.906571 1.41444 1.01808 1.21626 1.21626C1.01808 1.41444 0.906571 1.68311 0.906171 1.96337V36.1007C0.906171 36.381 1.01755 36.6499 1.21582 36.8482C1.41408 37.0465 1.68298 37.1579 1.96337 37.1579H34.5251C34.8055 37.1579 35.0744 37.0465 35.2727 36.8482C35.4709 36.6499 35.5823 36.381 35.5823 36.1007V1.96337C35.5819 1.68311 35.4704 1.41444 35.2722 1.21626C35.0741 1.01808 34.8054 0.906571 34.5251 0.906171H1.96337Z" fill="#9E5F14"/>
<path d="M33.8272 1.96765H2.66154C2.45576 1.96781 2.25845 2.04961 2.11291 2.19509C1.96737 2.34057 1.88549 2.53785 1.88525 2.74364V35.3205C1.88549 35.5263 1.96737 35.7236 2.11291 35.869C2.25845 36.0145 2.45576 36.0963 2.66154 36.0965H14.881C14.8946 36.0965 14.9078 36.1007 14.9217 36.1007C14.9356 36.1007 14.9489 36.0977 14.9625 36.0965H33.8272C34.033 36.0963 34.2303 36.0145 34.3758 35.869C34.5214 35.7236 34.6032 35.5263 34.6035 35.3205V2.74364C34.6032 2.53785 34.5214 2.34057 34.3758 2.19509C34.2303 2.04961 34.033 1.96781 33.8272 1.96765ZM14.4686 35.1903H2.79143V26.3319H14.4686V35.1903ZM14.4686 25.4257H2.79143V13.2425H14.4686V25.4257ZM14.4686 12.3364H2.79143V2.87382H14.4686V12.3364ZM33.6973 35.1903H15.3748V8.61109H33.6973V35.1903ZM33.6973 7.70492H15.3748V2.87382H33.6973V7.70492Z" fill="#9E5F14"/>
<path d="M13.4619 9.80653C13.4612 9.42289 13.3084 9.05517 13.0371 8.78393C12.7658 8.51268 12.3981 8.36002 12.0144 8.35938H5.2432C4.96006 8.35858 4.68293 8.44108 4.44633 8.59662C4.20974 8.75216 4.02411 8.97385 3.91258 9.23411C3.80105 9.49436 3.76854 9.78167 3.81909 10.0603C3.86964 10.3389 4.00102 10.5964 4.19687 10.8009C4.00102 11.0054 3.86964 11.263 3.81909 11.5415C3.76854 11.8201 3.80105 12.1075 3.91258 12.3677C4.02411 12.628 4.20974 12.8497 4.44633 13.0052C4.68293 13.1607 4.96006 13.2432 5.2432 13.2424H12.0144C12.2976 13.2433 12.5747 13.1608 12.8114 13.0053C13.048 12.8498 13.2337 12.6281 13.3453 12.3678C13.4568 12.1076 13.4894 11.8202 13.4388 11.5416C13.3883 11.263 13.2569 11.0054 13.061 10.8009C13.3177 10.5334 13.4613 10.1772 13.4619 9.80653ZM5.2432 9.26555H12.0144C12.0865 9.26384 12.1583 9.27658 12.2254 9.30301C12.2926 9.32944 12.3538 9.36903 12.4054 9.41944C12.457 9.46986 12.498 9.53009 12.526 9.59659C12.5541 9.66309 12.5685 9.73453 12.5685 9.80668C12.5685 9.87884 12.5541 9.95027 12.526 10.0168C12.498 10.0833 12.457 10.1435 12.4054 10.1939C12.3538 10.2443 12.2926 10.2839 12.2254 10.3104C12.1583 10.3368 12.0865 10.3495 12.0144 10.3478H5.2432C5.10189 10.3445 4.9675 10.286 4.86874 10.1849C4.76998 10.0838 4.7147 9.94803 4.7147 9.80668C4.7147 9.66534 4.76998 9.5296 4.86874 9.42848C4.9675 9.32737 5.10189 9.26889 5.2432 9.26555ZM12.0144 12.3363H5.2432C5.10189 12.3329 4.9675 12.2744 4.86874 12.1733C4.76998 12.0722 4.7147 11.9365 4.7147 11.7951C4.7147 11.6538 4.76998 11.518 4.86874 11.4169C4.9675 11.3158 5.10189 11.2573 5.2432 11.254H12.0144C12.0865 11.2523 12.1583 11.265 12.2254 11.2915C12.2926 11.3179 12.3538 11.3575 12.4054 11.4079C12.457 11.4583 12.498 11.5185 12.526 11.585C12.5541 11.6515 12.5685 11.723 12.5685 11.7951C12.5685 11.8673 12.5541 11.9387 12.526 12.0052C12.498 12.0717 12.457 12.1319 12.4054 12.1824C12.3538 12.2328 12.2926 12.2724 12.2254 12.2988C12.1583 12.3252 12.0865 12.338 12.0144 12.3363ZM13.1501 21.9015C13.346 21.697 13.4774 21.4395 13.5279 21.1609C13.5785 20.8823 13.546 20.595 13.4344 20.3347C13.3229 20.0744 13.1373 19.8528 12.9007 19.6972C12.6641 19.5417 12.387 19.4592 12.1038 19.46H5.33261C5.04944 19.4591 4.77227 19.5416 4.53563 19.6971C4.29898 19.8526 4.11332 20.0743 4.00175 20.3346C3.89018 20.5948 3.85764 20.8822 3.90818 21.1608C3.95872 21.4394 4.09011 21.697 4.28598 21.9015C4.02884 22.1686 3.88519 22.525 3.88519 22.8957C3.88519 23.2665 4.02884 23.6228 4.28598 23.8899C4.09015 24.0945 3.9588 24.3521 3.90828 24.6307C3.85776 24.9093 3.89031 25.1967 4.00186 25.4569C4.11342 25.7172 4.29906 25.9389 4.53568 26.0945C4.7723 26.25 5.04944 26.3325 5.33261 26.3318H12.1038C12.387 26.3325 12.6641 26.2499 12.9006 26.0943C13.1372 25.9388 13.3228 25.7171 13.4343 25.4568C13.5458 25.1965 13.5784 24.9092 13.5278 24.6306C13.4773 24.352 13.346 24.0945 13.1501 23.8899C13.4073 23.6228 13.5509 23.2665 13.5509 22.8957C13.5509 22.525 13.4073 22.1686 13.1501 21.9015ZM4.79132 22.8959C4.79148 22.7524 4.84856 22.6148 4.95004 22.5133C5.05151 22.4118 5.1891 22.3547 5.33261 22.3546H12.1038C12.2451 22.3579 12.3795 22.4164 12.4783 22.5175C12.577 22.6186 12.6323 22.7544 12.6323 22.8957C12.6323 23.0371 12.577 23.1728 12.4783 23.2739C12.3795 23.375 12.2451 23.4335 12.1038 23.4369H5.33261C5.18915 23.4367 5.05161 23.3797 4.95014 23.2782C4.84868 23.1768 4.79156 23.0393 4.79132 22.8959ZM5.33261 20.3661H12.1038C12.2451 20.3695 12.3795 20.428 12.4783 20.5291C12.577 20.6302 12.6323 20.7659 12.6323 20.9073C12.6323 21.0486 12.577 21.1844 12.4783 21.2855C12.3795 21.3866 12.2451 21.4451 12.1038 21.4484H5.33261C5.26047 21.4501 5.18872 21.4374 5.12157 21.411C5.05443 21.3845 4.99324 21.3449 4.94162 21.2945C4.89 21.2441 4.84898 21.1839 4.82097 21.1174C4.79296 21.0509 4.77853 20.9794 4.77853 20.9073C4.77853 20.8351 4.79296 20.7637 4.82097 20.6972C4.84898 20.6307 4.89 20.5705 4.94162 20.52C4.99324 20.4696 5.05443 20.43 5.12157 20.4036C5.18872 20.3772 5.26047 20.3644 5.33261 20.3661ZM12.1038 25.4256H5.33261C5.18905 25.4256 5.05137 25.3686 4.94986 25.2671C4.84835 25.1656 4.79132 25.0279 4.79132 24.8843C4.79132 24.7408 4.84835 24.6031 4.94986 24.5016C5.05137 24.4001 5.18905 24.343 5.33261 24.343H12.1038C12.2474 24.343 12.3851 24.4001 12.4866 24.5016C12.5881 24.6031 12.6451 24.7408 12.6451 24.8843C12.6451 25.0279 12.5881 25.1656 12.4866 25.2671C12.3851 25.3686 12.2474 25.4256 12.1038 25.4256ZM33.0252 17.2912C32.7836 16.3566 32.1356 14.0894 31.3669 13.2403C30.9125 12.712 30.3534 12.2837 29.7249 11.9826C29.5823 11.9164 29.4266 11.883 29.2693 11.885C29.1121 11.887 28.9573 11.9243 28.8163 11.994C28.4149 11.6723 27.9706 11.3029 27.6582 11.0172C27.7929 10.8236 27.914 10.6209 28.0207 10.4106C28.642 9.15469 28.5327 8.07907 27.735 7.60333C27.5319 7.48203 27.3034 7.4095 27.0676 7.39147C26.8317 7.37344 26.5949 7.4104 26.3757 7.49942C26.1744 7.58106 25.9952 7.7089 25.8525 7.87262C25.7098 8.03633 25.6076 8.23132 25.5541 8.44184C25.5395 8.49952 25.5363 8.55951 25.5448 8.61841C25.5534 8.6773 25.5734 8.73394 25.6038 8.78508C25.6343 8.83623 25.6744 8.88089 25.7221 8.9165C25.7698 8.95211 25.824 8.97798 25.8817 8.99264C25.9394 9.0073 25.9994 9.01045 26.0583 9.00192C26.1172 8.99339 26.1738 8.97334 26.2249 8.94292C26.2761 8.91251 26.3207 8.87231 26.3564 8.82463C26.392 8.77696 26.4178 8.72274 26.4325 8.66506C26.4515 8.59116 26.4877 8.52281 26.5381 8.46558C26.5886 8.40836 26.6518 8.36389 26.7228 8.33582C26.8115 8.30034 26.9073 8.28593 27.0025 8.29374C27.0977 8.30155 27.1899 8.33136 27.2716 8.38082C27.6945 8.63334 27.5024 9.41507 27.2091 10.008C27.0666 10.2854 26.8977 10.5484 26.7047 10.7934C26.3624 11.2251 25.9857 11.6283 25.5783 11.9992C25.4455 11.957 25.3057 11.9415 25.1669 11.9537C25.0281 11.9659 24.8931 12.0055 24.7697 12.0701C24.7005 12.1073 24.6186 12.149 24.528 12.1949C24.3803 12.2698 24.2027 12.3607 24.0163 12.464C23.9153 12.2867 23.7689 12.1394 23.5922 12.0372C23.4156 11.935 23.2149 11.8815 23.0108 11.8823H22.539C21.9442 11.4823 21.4748 11.1459 21.1758 10.9057C21.3347 10.7156 21.4728 10.509 21.5878 10.2895C22.2255 9.02753 22.1342 8.02409 21.335 7.53718C21.1136 7.41211 20.8644 7.34447 20.6101 7.3404C20.3559 7.33634 20.1047 7.39599 19.8794 7.51392C19.655 7.62314 19.4621 7.78761 19.3187 7.99188C19.1754 8.19615 19.0863 8.43352 19.0599 8.68167C19.0482 8.80132 19.0846 8.92069 19.1609 9.01354C19.2373 9.10638 19.3474 9.16509 19.4671 9.17674C19.5867 9.1884 19.7061 9.15205 19.7989 9.07569C19.8918 8.99933 19.9505 8.88922 19.9621 8.76957C19.9736 8.67355 20.0095 8.58209 20.0666 8.504C20.1236 8.42592 20.1998 8.36383 20.2878 8.32374C20.376 8.27464 20.4749 8.24793 20.5758 8.24593C20.6768 8.24393 20.7767 8.2667 20.8668 8.31226C21.3534 8.60948 20.9683 9.5081 20.7795 9.88295C20.6259 10.159 20.4343 10.4121 20.2101 10.6348C19.7643 11.0893 19.2819 11.5064 18.7678 11.882H18.3621C18.1222 11.882 17.8881 11.9562 17.6919 12.0945C17.4958 12.2327 17.3472 12.4283 17.2666 12.6543C16.5108 14.8599 16.1889 17.1908 16.3184 19.5186C16.3906 20.5758 16.4867 23.2145 16.5299 29.7849V29.8664C16.53 30.0421 16.5914 30.2123 16.7035 30.3476C16.8156 30.4829 16.9713 30.5749 17.1439 30.6077C17.4798 30.6647 17.8201 30.6914 18.1607 30.6874C18.6193 30.6856 19.0772 30.6528 19.5314 30.5893C19.6992 30.5632 19.8533 30.4813 19.9689 30.3568C20.0844 30.2324 20.1546 30.0726 20.1681 29.9033L20.5608 25.1166L20.9115 29.9247C20.9224 30.0877 20.9858 30.2428 21.0923 30.3667C21.1987 30.4906 21.3425 30.5767 21.502 30.6119C22.2996 30.72 23.1087 30.711 23.9037 30.585C24.0831 30.5638 24.2491 30.479 24.3715 30.3461C24.4938 30.2131 24.5646 30.0407 24.5709 29.8601L24.5767 29.6888C24.6029 28.8657 24.6634 26.9703 24.7371 25.0003C25.3835 25.0526 26.1265 25.0794 26.9387 25.0794C28.2204 25.0794 29.6636 25.0151 31.1231 24.887C31.1826 24.8818 31.2404 24.865 31.2933 24.8374C31.3462 24.8098 31.3931 24.772 31.4313 24.7262C31.4696 24.6804 31.4984 24.6276 31.5162 24.5706C31.5339 24.5137 31.5403 24.4538 31.5348 24.3944L31.0316 18.8909C31.0252 18.8244 31.0433 18.7578 31.0826 18.7037C31.1219 18.6496 31.1796 18.6117 31.2449 18.5973C31.7246 18.5112 32.1902 18.3592 32.6283 18.1457C32.7828 18.0708 32.9066 17.9449 32.9789 17.7892C33.0513 17.6335 33.0676 17.4576 33.0252 17.2912ZM27.1003 11.7334C27.3825 11.9877 27.7226 12.2719 28.0038 12.5009C27.7457 12.6257 27.4633 12.6921 27.1766 12.6954C26.8899 12.6986 26.606 12.6386 26.3452 12.5196C26.609 12.2694 26.861 12.007 27.1003 11.7334ZM20.5563 11.5693C20.6708 11.663 20.8049 11.7669 20.9601 11.8823H20.2116C20.3328 11.7762 20.4494 11.6717 20.5563 11.5693ZM23.672 29.6601V29.6994C23.0552 29.7879 22.4301 29.8038 21.8095 29.7468L21.0643 19.5476C21.0666 19.5275 21.0674 19.5073 21.0668 19.4872L20.9704 18.0149C20.9661 17.9477 20.9467 17.8824 20.9136 17.8237L20.2361 16.6228C20.1755 16.5172 20.076 16.4396 19.9589 16.4066C19.8418 16.3737 19.7164 16.3879 19.6096 16.4464C19.557 16.4745 19.5104 16.513 19.4728 16.5594C19.4352 16.6058 19.4072 16.6592 19.3904 16.7166C19.3737 16.7739 19.3686 16.8341 19.3755 16.8934C19.3823 16.9528 19.4009 17.0102 19.4302 17.0622L20.0567 18.1735L20.1295 19.2884L19.2762 29.7094C18.6664 29.7943 18.0484 29.8036 17.4363 29.7372C17.3916 23.1741 17.295 20.5244 17.2216 19.4563C17.0998 17.2515 17.4051 15.0439 18.1208 12.9549C18.1385 12.9052 18.1713 12.8624 18.2147 12.8325C18.2581 12.8026 18.3098 12.787 18.3624 12.7881H23.0108C23.0642 12.7881 23.1162 12.8048 23.1596 12.8359C23.2029 12.867 23.2354 12.9109 23.2524 12.9615L23.3431 13.2606C23.9595 15.3587 24.2134 17.5467 24.094 19.7303C24.0248 20.6048 23.9475 22.1166 23.8523 24.4877C23.769 26.6263 23.7004 28.7697 23.672 29.6601ZM31.07 17.708C30.7844 17.7651 30.5301 17.9261 30.3565 18.16C30.1829 18.3938 30.1023 18.6838 30.1303 18.9737L30.5918 24.0222C28.6571 24.1926 26.7123 24.2168 24.7739 24.0947C24.8615 21.9803 24.9328 20.6108 24.9968 19.8016C25.1216 17.6248 24.8878 15.4422 24.3048 13.3412C24.525 13.2119 24.7467 13.0996 24.9358 13.0029C25.0343 12.9531 25.1228 12.9081 25.1965 12.8685C25.2246 12.8554 25.2559 12.8505 25.2867 12.8546C25.3174 12.8587 25.3464 12.8715 25.3702 12.8914C25.3828 12.9012 25.3946 12.912 25.4055 12.9238C26.2655 13.8743 27.9959 13.8299 29.1812 12.8259C29.2027 12.8071 29.2293 12.7951 29.2576 12.7912C29.2858 12.7873 29.3146 12.7918 29.3404 12.8041C29.8595 13.0537 30.3205 13.4093 30.6936 13.8481C31.1956 14.4032 31.7484 16.0156 32.1133 17.3882C31.78 17.5374 31.4296 17.6448 31.07 17.708ZM8.33687 34.9386C8.23254 34.216 8.2046 33.4844 8.2535 32.7559C8.25715 32.6118 8.25029 32.4677 8.23296 32.3246C8.12996 31.3816 7.56843 30.6959 6.83504 30.6177C6.57689 30.5844 6.31458 30.6241 6.07786 30.7324C5.84114 30.8406 5.63947 31.0129 5.49572 31.2299C5.23775 31.6021 5.09423 32.0416 5.08281 32.4943C5.07465 32.6152 5.07042 32.7405 5.06589 32.8698C5.06339 33.1764 5.03652 33.4824 4.98554 33.7847C4.8466 34.365 4.73061 34.8196 4.6409 35.1355C4.60932 35.2478 4.60417 35.3658 4.62584 35.4804C4.64752 35.595 4.69543 35.703 4.76583 35.7959C4.83623 35.8889 4.9272 35.9643 5.03161 36.0162C5.13602 36.0681 5.25104 36.0951 5.36765 36.0952H7.63096C7.73808 36.095 7.84394 36.0721 7.94154 36.0279C8.03914 35.9838 8.12626 35.9194 8.19713 35.8391C8.268 35.7588 8.321 35.6643 8.35264 35.562C8.38428 35.4597 8.39384 35.3518 8.38066 35.2455C8.36707 35.1349 8.35076 35.0368 8.33687 34.9386ZM7.0936 35.189C7.09352 34.8249 7.12944 34.4617 7.20083 34.1046C7.22646 33.9872 7.2044 33.8643 7.13948 33.7632C7.07456 33.662 6.97211 33.5908 6.85467 33.5651C6.73723 33.5395 6.61441 33.5616 6.51324 33.6265C6.41207 33.6914 6.34083 33.7938 6.3152 33.9113C6.23007 34.3319 6.18717 34.7599 6.18713 35.189H5.56489C5.64886 34.8794 5.75035 34.4764 5.86966 33.9768C5.93265 33.6213 5.96639 33.2613 5.97055 32.9003C5.97448 32.7816 5.9784 32.6668 5.98565 32.5578C5.98602 32.2757 6.06954 32 6.22579 31.7652C6.27644 31.6762 6.35314 31.605 6.44556 31.561C6.53798 31.5171 6.64166 31.5025 6.74261 31.5193C6.98123 31.5447 7.26698 31.8383 7.33162 32.4312C7.34406 32.5314 7.349 32.6324 7.34642 32.7333C7.29539 33.5153 7.32668 34.3005 7.43976 35.076L7.45728 35.1887L7.0936 35.189ZM12.6306 35.1358C12.54 34.8196 12.4249 34.365 12.2902 33.8038C12.2366 33.4953 12.2083 33.1829 12.2056 32.8698C12.2011 32.7405 12.1969 32.6158 12.1884 32.4919C12.1769 32.0402 12.0335 31.6016 11.7761 31.2302C11.6321 31.0124 11.4297 30.8395 11.192 30.7313C10.9544 30.623 10.6911 30.5839 10.4322 30.6183C9.70156 30.6959 9.14155 31.3816 9.03945 32.3161C9.0215 32.4624 9.01443 32.6098 9.01831 32.7571C9.06699 33.4852 9.03894 34.2164 8.93464 34.9386C8.91953 35.0368 8.90443 35.1349 8.89084 35.2455C8.87767 35.3518 8.88722 35.4597 8.91886 35.562C8.9505 35.6643 9.00351 35.7588 9.07438 35.8391C9.14525 35.9194 9.23237 35.9838 9.32997 36.0279C9.42757 36.0721 9.53343 36.095 9.64054 36.0952H11.9039C12.0204 36.0951 12.1354 36.0681 12.2398 36.0162C12.3442 35.9643 12.4351 35.8889 12.5055 35.796C12.5759 35.7031 12.6238 35.5951 12.6455 35.4806C12.6672 35.3661 12.6621 35.2481 12.6306 35.1358ZM11.0844 35.189C11.0843 34.7599 11.0414 34.3319 10.9563 33.9113C10.9307 33.7938 10.8594 33.6914 10.7583 33.6265C10.6571 33.5616 10.5343 33.5395 10.4168 33.5651C10.2994 33.5908 10.1969 33.662 10.132 33.7632C10.0671 33.8643 10.045 33.9872 10.0707 34.1046C10.1421 34.4617 10.178 34.8249 10.1779 35.189H9.81302L9.83054 35.0763C9.94359 34.3013 9.97498 33.5166 9.92418 32.7351C9.92134 32.6308 9.92649 32.5265 9.93958 32.4231C10.0033 31.8383 10.2891 31.5447 10.5232 31.5199C10.6248 31.5019 10.7296 31.5158 10.823 31.5598C10.9164 31.6038 10.9939 31.6756 11.0448 31.7655C11.2006 31.9995 11.2839 32.2742 11.2843 32.5554C11.2919 32.6668 11.2958 32.7816 11.2997 32.9003C11.3042 33.2678 11.3393 33.6342 11.4046 33.9959C11.5208 34.4792 11.6214 34.88 11.7066 35.189H11.0844Z" fill="#9E5F14"/>
</svg>
