<svg width="34" height="39" viewBox="0 0 34 39" fill="none" xmlns="http://www.w3.org/2000/svg">
<path d="M27.1687 16.5055C27.1687 10.798 22.523 6.16064 16.8238 6.16064C11.1246 6.16064 6.479 10.798 6.479 16.5055C6.479 22.2047 11.1163 26.8503 16.8238 26.8503C22.5313 26.8503 27.1687 22.2047 27.1687 16.5055ZM16.8238 25.5147C11.8547 25.5147 7.80633 21.4747 7.80633 16.4972C7.80633 11.5197 11.8547 7.48797 16.8238 7.48797C21.793 7.48797 25.8414 11.528 25.8414 16.5055C25.8414 21.4829 21.793 25.5147 16.8238 25.5147Z" fill="black"/>
<path d="M29.4998 27.2072C29.8731 27.0164 30.2049 26.7675 30.4621 26.4191C31.1341 25.4983 30.9764 24.2954 30.8271 23.1257C30.7276 22.3708 30.628 21.5827 30.8022 21.0517C30.9598 20.554 31.4908 19.9982 31.9968 19.4672C32.7849 18.6377 33.6726 17.7002 33.6726 16.5139C33.6726 15.3276 32.7932 14.3736 32.0051 13.544C31.4991 13.0048 30.9681 12.4573 30.8105 11.9596C30.6363 11.4286 30.7359 10.6405 30.8354 9.88561C30.9847 8.71591 31.1341 7.51302 30.4704 6.59219C29.7984 5.66306 28.5955 5.43907 27.4341 5.21509C26.6875 5.07406 25.916 4.93303 25.4763 4.6095C25.0367 4.29426 24.6716 3.614 24.3149 2.95034C23.7757 1.95485 23.1535 0.826621 22.0502 0.461607C20.9883 0.113184 19.9016 0.627522 18.848 1.12527C18.1429 1.4571 17.4211 1.79723 16.8404 1.79723C16.2597 1.79723 15.538 1.4571 14.8329 1.12527C13.7793 0.627522 12.6925 0.113184 11.6307 0.461607C10.519 0.818325 9.93834 1.90507 9.36593 2.95034C9.00922 3.60571 8.63591 4.29426 8.20452 4.6095C7.75655 4.93303 6.99334 5.08236 6.24672 5.21509C5.08531 5.43078 3.88242 5.66306 3.21047 6.59219C2.53851 7.51302 2.69613 8.71591 2.84545 9.88561C2.945 10.6405 3.04455 11.4286 2.87034 11.9596C2.71272 12.4573 2.18179 13.0131 1.67575 13.544C0.887648 14.3736 0 15.3111 0 16.4973C0 17.6836 0.895944 18.6211 1.67575 19.4506C2.18179 19.9899 2.71272 20.5374 2.87034 21.0351C3.04455 21.5661 2.945 22.3542 2.84545 23.1091C2.69613 24.2788 2.5468 25.4817 3.21047 26.4025C3.46764 26.7509 3.79947 27.0081 4.17278 27.1906L0.555817 33.4539C0.423085 33.6862 0.439676 33.9766 0.605592 34.1922C0.771507 34.4079 1.04527 34.4992 1.30244 34.4328L6.64492 32.9977L8.08009 38.3401C8.14645 38.5973 8.37044 38.7881 8.63591 38.8296C8.66909 38.8296 8.69398 38.8379 8.71886 38.8379C8.95115 38.8379 9.17513 38.7134 9.29127 38.506L12.6842 32.6243C13.406 32.5414 14.136 32.2013 14.8411 31.8694C15.5463 31.5376 16.268 31.1975 16.8487 31.1975C17.4294 31.1975 18.1512 31.5376 18.8563 31.8694C19.5614 32.2013 20.2915 32.5497 21.0132 32.6243L24.4062 38.506C24.5223 38.7134 24.7463 38.8379 24.9786 38.8379C25.0035 38.8379 25.0367 38.8379 25.0615 38.8296C25.327 38.7964 25.5427 38.6056 25.6174 38.3401L27.0525 32.9977L32.395 34.4328C32.6522 34.4992 32.9259 34.4079 33.0919 34.1922C33.2578 33.9766 33.2744 33.6862 33.1416 33.4539L29.4998 27.2072ZM8.91796 36.4653L7.73167 32.027C7.64041 31.6703 7.2754 31.4629 6.91868 31.5542L2.48044 32.7405L5.43373 27.622C5.6909 27.6801 5.95637 27.7298 6.22183 27.7796C6.96845 27.9206 7.73996 28.0617 8.17964 28.3852C8.61931 28.7004 8.98433 29.3807 9.34105 30.0444C9.8222 30.932 10.3614 31.9192 11.2574 32.3838L8.91796 36.4653ZM16.8238 29.8784C15.9445 29.8784 15.0817 30.2849 14.2521 30.6748C13.4309 31.0647 12.5847 31.4629 12.0289 31.2804C11.4233 31.0813 10.967 30.2352 10.519 29.4222C10.0877 28.6341 9.64799 27.8211 8.96774 27.3233C8.27919 26.8256 7.35836 26.6514 6.47071 26.4855C5.56647 26.3113 4.62904 26.137 4.25573 25.6393C3.89902 25.1498 4.01516 24.2041 4.1313 23.2999C4.24744 22.3956 4.36358 21.4665 4.09811 20.6452C3.84095 19.8654 3.21047 19.1935 2.60487 18.5547C1.9578 17.8744 1.28585 17.1693 1.28585 16.5139C1.28585 15.8586 1.9578 15.1534 2.60487 14.4732C3.21876 13.8261 3.84924 13.1624 4.09811 12.3826C4.36358 11.5614 4.24744 10.6322 4.1313 9.72799C4.01516 8.81546 3.89902 7.87803 4.25573 7.38858C4.62075 6.88254 5.55817 6.70833 6.47071 6.54241C7.35836 6.3765 8.27919 6.20229 8.96774 5.70454C9.64799 5.21509 10.0877 4.39381 10.519 3.60571C10.967 2.78443 11.4233 1.94655 12.0289 1.74745C12.593 1.56495 13.4392 1.96314 14.2521 2.35304C15.0817 2.74295 15.9445 3.14944 16.8238 3.14944C17.7032 3.14944 18.566 2.74295 19.3955 2.35304C20.2168 1.96314 21.063 1.56495 21.6188 1.74745C22.2244 1.94655 22.6807 2.79272 23.1286 3.60571C23.56 4.39381 23.9997 5.20679 24.6799 5.70454C25.3685 6.20229 26.2893 6.3765 27.177 6.54241C28.0812 6.71662 29.0186 6.89083 29.3919 7.38858C29.7487 7.87803 29.6325 8.82375 29.5164 9.72799C29.4002 10.6322 29.2841 11.5614 29.5496 12.3826C29.8067 13.1624 30.4372 13.8344 31.0428 14.4732C31.6899 15.1534 32.3618 15.8586 32.3618 16.5139C32.3618 17.1693 31.6899 17.8744 31.0428 18.5547C30.4289 19.2018 29.7984 19.8654 29.5496 20.6452C29.2841 21.4665 29.4002 22.3956 29.5164 23.2999C29.6325 24.2124 29.7487 25.1498 29.3919 25.6393C29.0269 26.1453 28.0895 26.3195 27.177 26.4855C26.2893 26.6514 25.3685 26.8256 24.6799 27.3233C23.9997 27.8128 23.56 28.6341 23.1286 29.4222C22.6807 30.2435 22.2244 31.0813 21.6188 31.2804C21.0547 31.4629 20.2085 31.0647 19.3955 30.6748C18.566 30.2849 17.7032 29.8784 16.8238 29.8784ZM26.729 31.5542C26.3723 31.4629 26.0073 31.6703 25.916 32.027L24.7297 36.4653L22.382 32.4004C23.2697 31.9441 23.7923 30.9901 24.2983 30.0609C24.6551 29.4056 25.0284 28.717 25.4597 28.4018C25.9077 28.0783 26.6709 27.9289 27.4175 27.7962C27.683 27.7464 27.9485 27.6966 28.2056 27.6386L31.1589 32.7571L26.729 31.5542Z" fill="black"/>
<path d="M23.0457 12.4409C22.7885 12.1838 22.3654 12.1838 22.1082 12.4409L15.3887 19.1605L11.5477 15.3196C11.2905 15.0624 10.8675 15.0624 10.6103 15.3196C10.3531 15.5767 10.3531 15.9998 10.6103 16.257L14.9241 20.5708C15.0485 20.6952 15.2145 20.7616 15.397 20.7616C15.5795 20.7616 15.7454 20.6952 15.8698 20.5708L23.0457 13.3783C23.3028 13.1212 23.3028 12.6981 23.0457 12.4409Z" fill="black"/>
</svg>
